<?xml version="1.0" encoding="UTF-8"?>
<svg version="1.1" xmlns="http://www.w3.org/2000/svg" width="150" height="150">
<path d="M0 0 C1.5770256 1.01954203 3.14098611 2.05974393 4.6875 3.125 C5.30109375 3.52976562 5.9146875 3.93453125 6.546875 4.3515625 C16.60315058 11.87070433 22.69375453 25.07010188 24.6875 37.125 C26.1627388 51.92397451 22.9345917 65.36746739 13.6875 77.125 C2.82971904 89.21161766 -9.89430569 96.18247039 -26.37109375 97.33984375 C-31.11507804 97.39777572 -35.659706 97.13100951 -40.3125 96.125 C-40.3125 95.465 -40.3125 94.805 -40.3125 94.125 C-41.611875 94.2178125 -41.611875 94.2178125 -42.9375 94.3125 C-46.75449033 94.10044498 -49.02327536 93.00455693 -52.3125 91.125 C-52.3125 90.465 -52.3125 89.805 -52.3125 89.125 C-53.9625 88.795 -55.6125 88.465 -57.3125 88.125 C-57.3125 87.465 -57.3125 86.805 -57.3125 86.125 C-58.3025 86.125 -59.2925 86.125 -60.3125 86.125 C-60.3125 85.465 -60.3125 84.805 -60.3125 84.125 C-61.26125 83.898125 -62.21 83.67125 -63.1875 83.4375 C-66.3125 82.125 -66.3125 82.125 -67.625 79.6875 C-67.851875 78.841875 -68.07875 77.99625 -68.3125 77.125 C-68.6425 76.135 -68.9725 75.145 -69.3125 74.125 C-69.9725 74.125 -70.6325 74.125 -71.3125 74.125 C-73.39453798 69.82616431 -75.38438841 65.49506003 -77.3125 61.125 C-77.67601562 60.31417969 -78.03953125 59.50335938 -78.4140625 58.66796875 C-82.44673258 47.90790044 -80.78969094 35.03625335 -76.3125 24.6875 C-69.41489735 9.9563847 -58.93639294 1.03056157 -43.9765625 -4.9296875 C-29.46503904 -10.07893776 -13.10483532 -7.44370317 0 0 Z " fill="#73D5E2" transform="translate(102.3125,29.875)"/>
<path d="M0 0 C8.57871501 7.21742191 15.25691106 17.6700011 16.984375 28.8828125 C17.05211644 31.49763208 17.07937758 34.08260506 17.046875 36.6953125 C17.04236328 37.38818359 17.03785156 38.08105469 17.03320312 38.79492188 C17.02150656 40.49092318 17.00357424 42.18687953 16.984375 43.8828125 C16.324375 43.2228125 15.664375 42.5628125 14.984375 41.8828125 C12.75779346 41.51276956 12.75779346 41.51276956 10.1953125 41.46875 C9.25429687 41.43007812 8.31328125 41.39140625 7.34375 41.3515625 C6.35890625 41.320625 5.3740625 41.2896875 4.359375 41.2578125 C3.36679688 41.21914062 2.37421875 41.18046875 1.3515625 41.140625 C-1.10397885 41.0461811 -3.5595091 40.96061375 -6.015625 40.8828125 C-6.015625 40.5528125 -6.015625 40.2228125 -6.015625 39.8828125 C1.244375 39.8828125 8.504375 39.8828125 15.984375 39.8828125 C15.984375 38.5628125 15.984375 37.2428125 15.984375 35.8828125 C8.724375 35.8828125 1.464375 35.8828125 -6.015625 35.8828125 C-5.685625 33.5728125 -5.355625 31.2628125 -5.015625 28.8828125 C-4.685625 29.5428125 -4.355625 30.2028125 -4.015625 30.8828125 C-3.025625 30.8828125 -2.035625 30.8828125 -1.015625 30.8828125 C-1.7920182 27.8082769 -1.7920182 27.8082769 -4.015625 25.8828125 C0.274375 25.5528125 4.564375 25.2228125 8.984375 24.8828125 C9.44823848 20.89754204 9.44823848 20.89754204 7.046875 18.8828125 C6.36625 18.2228125 5.685625 17.5628125 4.984375 16.8828125 C4.296875 14.6953125 4.296875 14.6953125 3.984375 12.8828125 C3.654375 12.5528125 3.324375 12.2228125 2.984375 11.8828125 C-0.11275574 12.13744238 -1.66349067 12.56741659 -4 14.66015625 C-4.87398437 15.72943359 -4.87398437 15.72943359 -5.765625 16.8203125 C-6.35859375 17.53058594 -6.9515625 18.24085937 -7.5625 18.97265625 C-9.06237499 20.82164017 -9.06237499 20.82164017 -10.015625 22.8828125 C-9.71398437 23.41261719 -9.41234375 23.94242188 -9.1015625 24.48828125 C-7.51671258 27.98293233 -7.64713639 31.42847169 -7.640625 35.1953125 C-7.61613281 35.92943359 -7.59164062 36.66355469 -7.56640625 37.41992188 C-7.53645418 43.04591813 -8.74002761 46.28677534 -12.015625 50.8828125 C-14.234375 52.84375 -14.234375 52.84375 -16.515625 54.2578125 C-17.2684375 54.73992187 -18.02125 55.22203125 -18.796875 55.71875 C-24.73731111 58.83538725 -31.34242734 58.71242557 -37.640625 56.7578125 C-43.07037434 53.74128509 -48.387503 50.25676897 -50.578125 44.13671875 C-51.86851695 37.48889596 -52.25334138 30.49576931 -49.328125 24.3203125 C-48.565 23.5159375 -47.801875 22.7115625 -47.015625 21.8828125 C-46.21125 20.9959375 -45.406875 20.1090625 -44.578125 19.1953125 C-38.8238393 14.00242052 -33.76612342 12.5300455 -26.015625 12.8828125 C-20.23454239 14.3383043 -15.39657267 16.79392801 -11.015625 20.8828125 C-10.78875 20.3259375 -10.561875 19.7690625 -10.328125 19.1953125 C-7.43093666 14.09074256 -2.51039579 10.54134686 1.984375 6.8828125 C0.0486916 1.07576229 -6.94913457 -1.50531433 -12.1484375 -4.23828125 C-22.73223459 -8.5755628 -36.33567968 -6.84598341 -46.90625 -3.47265625 C-50.94149274 -1.7135743 -54.0751754 0.56767338 -57.34375 3.4921875 C-59.015625 4.8828125 -59.015625 4.8828125 -61.015625 4.8828125 C-61.28503906 5.45644531 -61.55445313 6.03007813 -61.83203125 6.62109375 C-63.0423658 8.93391126 -64.43469392 10.94914541 -65.953125 13.0703125 C-72.51302085 22.97415526 -72.55763236 32.24979933 -73.015625 43.8828125 C-65.755625 44.2128125 -58.495625 44.5428125 -51.015625 44.8828125 C-51.015625 45.2128125 -51.015625 45.5428125 -51.015625 45.8828125 C-57.945625 45.8828125 -64.875625 45.8828125 -72.015625 45.8828125 C-72.015625 47.2028125 -72.015625 48.5228125 -72.015625 49.8828125 C-64.755625 49.8828125 -57.495625 49.8828125 -50.015625 49.8828125 C-50.015625 50.2128125 -50.015625 50.5428125 -50.015625 50.8828125 C-56.945625 50.8828125 -63.875625 50.8828125 -71.015625 50.8828125 C-70.685625 51.8728125 -70.355625 52.8628125 -70.015625 53.8828125 C-63.415625 54.2128125 -56.815625 54.5428125 -50.015625 54.8828125 C-50.015625 55.2128125 -50.015625 55.5428125 -50.015625 55.8828125 C-56.285625 55.8828125 -62.555625 55.8828125 -69.015625 55.8828125 C-65.92302043 62.34269252 -65.92302043 62.34269252 -62.015625 67.8828125 C-58.71443706 67.3022804 -57.10428424 66.33413151 -54.78125 63.94140625 C-53.92080078 63.06645508 -53.92080078 63.06645508 -53.04296875 62.17382812 C-52.16318359 61.25633789 -52.16318359 61.25633789 -51.265625 60.3203125 C-50.66363281 59.70478516 -50.06164062 59.08925781 -49.44140625 58.45507812 C-47.95928119 56.93766437 -46.4865283 55.41110654 -45.015625 53.8828125 C-45.015625 56.8828125 -45.015625 56.8828125 -46.19311523 58.38500977 C-46.73137939 58.90119873 -47.26964355 59.4173877 -47.82421875 59.94921875 C-48.40623047 60.51705078 -48.98824219 61.08488281 -49.58789062 61.66992188 C-50.20341797 62.25580078 -50.81894531 62.84167969 -51.453125 63.4453125 C-52.66224782 64.61111585 -53.86937714 65.77899137 -55.07421875 66.94921875 C-55.61361084 67.46427979 -56.15300293 67.97934082 -56.70874023 68.51000977 C-58.13131331 69.87018711 -58.13131331 69.87018711 -59.015625 71.8828125 C-58.45230469 72.16125 -57.88898437 72.4396875 -57.30859375 72.7265625 C-55.77973571 73.49750284 -54.26123069 74.2893255 -52.75390625 75.1015625 C-47.19110383 78.03972545 -42.21095592 79.78364089 -36.015625 80.8828125 C-35.520625 78.9028125 -35.520625 78.9028125 -35.015625 76.8828125 C-34.025625 76.8828125 -33.035625 76.8828125 -32.015625 76.8828125 C-32.015625 77.5428125 -32.015625 78.2028125 -32.015625 78.8828125 C-29.045625 78.3878125 -29.045625 78.3878125 -26.015625 77.8828125 C-26.015625 77.2228125 -26.015625 76.5628125 -26.015625 75.8828125 C-27.335625 75.8828125 -28.655625 75.8828125 -30.015625 75.8828125 C-30.015625 74.8928125 -30.015625 73.9028125 -30.015625 72.8828125 C-29.0875 72.480625 -29.0875 72.480625 -28.140625 72.0703125 C-25.7161017 70.92724402 -25.7161017 70.92724402 -24.015625 67.8828125 C-23.685625 68.2128125 -23.355625 68.5428125 -23.015625 68.8828125 C-22.355625 67.2328125 -21.695625 65.5828125 -21.015625 63.8828125 C-20.355625 63.8828125 -19.695625 63.8828125 -19.015625 63.8828125 C-17.390625 66.3828125 -17.390625 66.3828125 -16.015625 68.8828125 C-13.540625 68.3878125 -13.540625 68.3878125 -11.015625 67.8828125 C-11.48649023 65.13609868 -12.06072578 62.77507175 -13.140625 60.1953125 C-13.57375 59.050625 -13.57375 59.050625 -14.015625 57.8828125 C-13.685625 57.2228125 -13.355625 56.5628125 -13.015625 55.8828125 C-9.11276733 57.46948828 -6.68041518 60.01631731 -3.765625 63.0078125 C-2.87359375 63.91789062 -1.9815625 64.82796875 -1.0625 65.765625 C-0.38703125 66.46429688 0.2884375 67.16296875 0.984375 67.8828125 C0.324375 66.8928125 -0.335625 65.9028125 -1.015625 64.8828125 C-0.140625 61.6953125 -0.140625 61.6953125 0.984375 58.8828125 C2.304375 58.8828125 3.624375 58.8828125 4.984375 58.8828125 C4.984375 58.2228125 4.984375 57.5628125 4.984375 56.8828125 C1.024375 56.5528125 -2.935625 56.2228125 -7.015625 55.8828125 C-7.015625 55.5528125 -7.015625 55.2228125 -7.015625 54.8828125 C-0.745625 54.5528125 5.524375 54.2228125 11.984375 53.8828125 C12.479375 52.8928125 12.479375 52.8928125 12.984375 51.8828125 C6.054375 51.8828125 -0.875625 51.8828125 -8.015625 51.8828125 C-8.015625 51.2228125 -8.015625 50.5628125 -8.015625 49.8828125 C-0.755625 49.8828125 6.504375 49.8828125 13.984375 49.8828125 C13.984375 48.8928125 13.984375 47.9028125 13.984375 46.8828125 C7.054375 46.8828125 0.124375 46.8828125 -7.015625 46.8828125 C-7.015625 46.2228125 -7.015625 45.5628125 -7.015625 44.8828125 C0.574375 44.8828125 8.164375 44.8828125 15.984375 44.8828125 C15.984375 50.46650881 15.26934155 53.19382831 12.796875 57.8828125 C12.20519531 59.0584375 11.61351563 60.2340625 11.00390625 61.4453125 C3.71119109 73.85844469 -7.58254867 79.3718678 -21 83.4921875 C-32.83231717 85.78527222 -43.82614991 83.0797142 -54.09375 77.0859375 C-64.63770599 69.88378177 -72.48367107 59.56506841 -75.015625 46.8828125 C-75.33927789 43.44138615 -75.39648193 40.0255916 -75.390625 36.5703125 C-75.38973877 35.63695068 -75.38885254 34.70358887 -75.38793945 33.74194336 C-75.27275927 27.06324676 -74.39539183 21.73380668 -71.015625 15.8828125 C-70.42837806 14.67637632 -69.84453912 13.4682693 -69.265625 12.2578125 C-68.853125 11.4740625 -68.440625 10.6903125 -68.015625 9.8828125 C-67.355625 9.8828125 -66.695625 9.8828125 -66.015625 9.8828125 C-65.77972656 9.315625 -65.54382813 8.7484375 -65.30078125 8.1640625 C-60.57085504 -0.23191593 -51.68972006 -5.08798109 -42.79296875 -7.79296875 C-27.03192291 -11.66087148 -13.23695823 -9.29330487 0 0 Z " fill="#195B8C" transform="translate(104.015625,37.1171875)"/>
<path d="M0 0 C1.5770256 1.01954203 3.14098611 2.05974393 4.6875 3.125 C5.30109375 3.52976562 5.9146875 3.93453125 6.546875 4.3515625 C16.60315058 11.87070433 22.69375453 25.07010188 24.6875 37.125 C26.1627388 51.92397451 22.9345917 65.36746739 13.6875 77.125 C2.82971904 89.21161766 -9.89430569 96.18247039 -26.37109375 97.33984375 C-31.11507804 97.39777572 -35.659706 97.13100951 -40.3125 96.125 C-40.3125 95.465 -40.3125 94.805 -40.3125 94.125 C-41.611875 94.2178125 -41.611875 94.2178125 -42.9375 94.3125 C-46.75449033 94.10044498 -49.02327536 93.00455693 -52.3125 91.125 C-52.3125 90.465 -52.3125 89.805 -52.3125 89.125 C-53.9625 88.795 -55.6125 88.465 -57.3125 88.125 C-57.3125 87.465 -57.3125 86.805 -57.3125 86.125 C-58.3025 86.125 -59.2925 86.125 -60.3125 86.125 C-60.3125 85.465 -60.3125 84.805 -60.3125 84.125 C-61.26125 83.898125 -62.21 83.67125 -63.1875 83.4375 C-66.3125 82.125 -66.3125 82.125 -67.625 79.6875 C-67.851875 78.841875 -68.07875 77.99625 -68.3125 77.125 C-68.6425 76.135 -68.9725 75.145 -69.3125 74.125 C-69.9725 74.125 -70.6325 74.125 -71.3125 74.125 C-73.39453798 69.82616431 -75.38438841 65.49506003 -77.3125 61.125 C-77.67601562 60.31417969 -78.03953125 59.50335938 -78.4140625 58.66796875 C-82.44673258 47.90790044 -80.78969094 35.03625335 -76.3125 24.6875 C-69.41489735 9.9563847 -58.93639294 1.03056157 -43.9765625 -4.9296875 C-29.46503904 -10.07893776 -13.10483532 -7.44370317 0 0 Z M-62.9140625 13.390625 C-64.52172797 15.01316732 -64.52172797 15.01316732 -64.3125 17.125 C-64.9725 17.125 -65.6325 17.125 -66.3125 17.125 C-67.29664433 19.03911557 -68.27463349 20.9563967 -69.25 22.875 C-70.06791016 24.47601563 -70.06791016 24.47601563 -70.90234375 26.109375 C-75.47118735 35.87986602 -74.85267237 50.598235 -71.8125 60.75 C-67.22269747 72.01587894 -59.0180571 81.59768448 -47.890625 86.69140625 C-44.72019668 87.92787329 -41.54665254 89.06811705 -38.3125 90.125 C-37.3225 90.455 -36.3325 90.785 -35.3125 91.125 C-21.52511619 92.25846417 -9.56035756 89.24375433 1.6875 81.125 C4.45872275 78.77073501 4.45872275 78.77073501 6.6875 76.125 C7.16703125 75.63644531 7.6465625 75.14789063 8.140625 74.64453125 C17.40126763 64.79925209 19.08322353 53.57286644 18.90234375 40.62109375 C18.7284149 35.39998736 17.82986582 30.90412375 15.6875 26.125 C15.35878906 25.38378906 15.03007813 24.64257812 14.69140625 23.87890625 C7.85884404 10.23742391 -3.14679292 2.84690236 -17.3125 -1.875 C-35.37072604 -2.97456411 -49.89933579 0.11869025 -62.9140625 13.390625 Z " fill="#B9C0BF" transform="translate(102.3125,29.875)"/>
<path d="M0 0 C-0.33 0.66 -0.66 1.32 -1 2 C0.11707614 5.72358715 0.6729664 6.7819776 4 9 C3.67 10.65 3.34 12.3 3 14 C-0.63 14.33 -4.26 14.66 -8 15 C-7.505 16.98 -7.505 16.98 -7 19 C-8.32 19 -9.64 19 -11 19 C-11.495 21.475 -11.495 21.475 -12 24 C-4.74 24 2.52 24 10 24 C9.505 26.475 9.505 26.475 9 29 C9.99 30.485 9.99 30.485 11 32 C10.67 32.99 10.34 33.98 10 35 C10 34.34 10 33.68 10 33 C2.41 33 -5.18 33 -13 33 C-13 33.66 -13 34.32 -13 35 C-6.07 35 0.86 35 8 35 C8 35.99 8 36.98 8 38 C0.74 38 -6.52 38 -14 38 C-14 38.66 -14 39.32 -14 40 C-7.07 40 -0.14 40 7 40 C6.67 40.99 6.34 41.98 6 43 C1.545 43.495 1.545 43.495 -3 44 C-2.01 44.495 -2.01 44.495 -1 45 C-1 45.66 -1 46.32 -1 47 C-2.32 47 -3.64 47 -5 47 C-5.77426109 49.80764728 -5.77426109 49.80764728 -6 53 C-4.68864588 55.36290685 -4.68864588 55.36290685 -3 57 C-6.87321093 55.42369323 -9.24735163 52.92252331 -12.125 49.9375 C-15.24105765 46.53546517 -15.24105765 46.53546517 -19 44 C-18.45276317 47.37462715 -17.9451 49.08235 -16 52 C-16.375 54.6875 -16.375 54.6875 -17 57 C-19.3125 57.6875 -19.3125 57.6875 -22 58 C-23.8125 56.75 -23.8125 56.75 -25 55 C-25 54.01 -25 53.02 -25 52 C-25.66 52 -26.32 52 -27 52 C-27.33 54.31 -27.66 56.62 -28 59 C-28.66 58.34 -29.32 57.68 -30 57 C-30.433125 57.66 -30.86625 58.32 -31.3125 59 C-32.1478125 59.99 -32.1478125 59.99 -33 61 C-33.99 61 -34.98 61 -36 61 C-36 61.99 -36 62.98 -36 64 C-34.68 64 -33.36 64 -32 64 C-32 64.66 -32 65.32 -32 66 C-34.97 66.495 -34.97 66.495 -38 67 C-38 66.34 -38 65.68 -38 65 C-39.485 65.495 -39.485 65.495 -41 66 C-41.33 66.99 -41.66 67.98 -42 69 C-51.02799377 68.56316159 -57.88958714 65.56467094 -65 60 C-63.59155282 56.78475695 -61.89655214 54.67816132 -59.375 52.25 C-58.42753906 51.32960938 -58.42753906 51.32960938 -57.4609375 50.390625 C-56.73777344 49.70226562 -56.73777344 49.70226562 -56 49 C-54.75453595 51.49092811 -55.2232422 52.41080733 -56 55 C-52.91190305 56.76462683 -51.76687864 57 -48 57 C-47.92572162 53.65747276 -47.93453047 51.1964086 -49 48 C-48.34 48 -47.68 48 -47 48 C-47 48.66 -47 49.32 -47 50 C-45.02 49.505 -45.02 49.505 -43 49 C-43 47.68 -43 46.36 -43 45 C-42.2265625 45.03480469 -41.453125 45.06960937 -40.65625 45.10546875 C-32.55127427 45.31611787 -26.6113512 45.04958546 -20.1875 39.625 C-15.58690895 34.10429074 -14.53565353 30.53352868 -14.6875 23.5 C-14.68427734 22.75363281 -14.68105469 22.00726563 -14.67773438 21.23828125 C-14.71846903 17.05372112 -15.09778414 13.81958882 -17 10 C-16.51789063 9.52949219 -16.03578125 9.05898438 -15.5390625 8.57421875 C-14.90742187 7.95160156 -14.27578125 7.32898437 -13.625 6.6875 C-12.99851563 6.07261719 -12.37203125 5.45773438 -11.7265625 4.82421875 C-9.81913393 2.91187472 -9.81913393 2.91187472 -8 0 C-4.71023192 -1.09658936 -3.28696233 -0.79953138 0 0 Z " fill="#5BBDCF" transform="translate(110,49)"/>
<path d="M0 0 C1.52931956 0.98697301 3.05148634 1.9852233 4.5625 3 C5.490625 3.5775 6.41875 4.155 7.375 4.75 C11.7219414 9.22113973 14.5625 14.76187062 14.5625 21 C11.00533021 19.81427674 10.48983575 18.81144761 8.375 15.8125 C1.66018792 7.00801611 -8.2892223 0.40829121 -19.42626953 -1.30615234 C-32.58869842 -2.44474869 -45.77861657 -0.064164 -56.4375 8 C-61.04994163 12.00389277 -61.04994163 12.00389277 -64.4375 17 C-65.0975 17 -65.7575 17 -66.4375 17 C-66.685 17.78375 -66.9325 18.5675 -67.1875 19.375 C-68.4375 23 -68.4375 23 -69.4609375 24.88671875 C-74.81448806 35.46093031 -74.12780017 50.16726982 -70.5 61.25 C-69.36624643 64.38006575 -69.36624643 64.38006575 -67.4375 67 C-67.36544489 68.68608966 -67.35363932 70.37500659 -67.375 72.0625 C-67.38402344 72.98160156 -67.39304687 73.90070313 -67.40234375 74.84765625 C-67.41394531 75.55792969 -67.42554688 76.26820312 -67.4375 77 C-68.0975 76.67 -68.7575 76.34 -69.4375 76 C-69.4375 75.34 -69.4375 74.68 -69.4375 74 C-70.0975 74 -70.7575 74 -71.4375 74 C-73.51953798 69.70116431 -75.50938841 65.37006003 -77.4375 61 C-77.80101562 60.18917969 -78.16453125 59.37835938 -78.5390625 58.54296875 C-82.57173258 47.78290044 -80.91469094 34.91125335 -76.4375 24.5625 C-69.53989735 9.8313847 -59.06139294 0.90556157 -44.1015625 -5.0546875 C-29.52551981 -10.22683168 -13.11319639 -7.56456717 0 0 Z " fill="#E6ECEA" transform="translate(102.4375,30)"/>
<path d="M0 0 C2.13949698 1.63706456 4.19414343 3.31154261 6.19921875 5.109375 C5.12509367 8.33175024 4.56695271 8.85128827 2.01171875 10.859375 C-1.72303009 13.93051144 -4.76899133 17.35573034 -7.80078125 21.109375 C-9.77021648 20.13987377 -11.71549404 19.15777138 -13.625 18.07421875 C-19.31980093 14.93431803 -24.69277157 13.29179395 -31.1953125 14.5859375 C-35.80004606 15.97575758 -39.24337737 17.78148105 -42.80078125 21.109375 C-44.40417973 17.99165573 -44.99052266 16.71925811 -43.92578125 13.296875 C-43.55453125 12.575 -43.18328125 11.853125 -42.80078125 11.109375 C-43.79078125 11.109375 -44.78078125 11.109375 -45.80078125 11.109375 C-45.80078125 9.129375 -45.80078125 7.149375 -45.80078125 5.109375 C-45.14078125 5.109375 -44.48078125 5.109375 -43.80078125 5.109375 C-43.80078125 6.099375 -43.80078125 7.089375 -43.80078125 8.109375 C-42.81078125 8.109375 -41.82078125 8.109375 -40.80078125 8.109375 C-40.80078125 6.789375 -40.80078125 5.469375 -40.80078125 4.109375 C-39.48078125 3.779375 -38.16078125 3.449375 -36.80078125 3.109375 C-37.13078125 4.429375 -37.46078125 5.749375 -37.80078125 7.109375 C-36.48078125 7.109375 -35.16078125 7.109375 -33.80078125 7.109375 C-33.47078125 6.119375 -33.14078125 5.129375 -32.80078125 4.109375 C-31.48078125 4.109375 -30.16078125 4.109375 -28.80078125 4.109375 C-28.47078125 3.449375 -28.14078125 2.789375 -27.80078125 2.109375 C-27.80078125 2.769375 -27.80078125 3.429375 -27.80078125 4.109375 C-26.81078125 4.109375 -25.82078125 4.109375 -24.80078125 4.109375 C-24.80078125 3.119375 -24.80078125 2.129375 -24.80078125 1.109375 C-25.79078125 0.779375 -26.78078125 0.449375 -27.80078125 0.109375 C-25.32578125 0.604375 -25.32578125 0.604375 -22.80078125 1.109375 C-22.80078125 2.099375 -22.80078125 3.089375 -22.80078125 4.109375 C-21.81078125 4.109375 -20.82078125 4.109375 -19.80078125 4.109375 C-20.13078125 2.129375 -20.46078125 0.149375 -20.80078125 -1.890625 C-22.12078125 -1.560625 -23.44078125 -1.230625 -24.80078125 -0.890625 C-24.80078125 -1.880625 -24.80078125 -2.870625 -24.80078125 -3.890625 C-26.05890625 -3.725625 -27.31703125 -3.560625 -28.61328125 -3.390625 C-34.01523215 -2.77989488 -39.37138463 -2.79928936 -44.80078125 -2.890625 C-44.80078125 -3.220625 -44.80078125 -3.550625 -44.80078125 -3.890625 C-29.52259427 -8.8361653 -13.73281825 -9.27013115 0 0 Z " fill="#36D8EA" transform="translate(100.80078125,36.890625)"/>
<path d="M0 0 C0 1.32 0 2.64 0 4 C2.78823655 5.0326802 3.8677274 5.04509293 6.75 4.0625 C7.4925 3.711875 8.235 3.36125 9 3 C8.835 4.093125 8.67 5.18625 8.5 6.3125 C7.93281816 9.87525873 7.93281816 9.87525873 8 13 C9.32 13.66 10.64 14.32 12 15 C12 15.99 12 16.98 12 18 C13.32 18.33 14.64 18.66 16 19 C16.125 21.875 16.125 21.875 16 25 C13.51680598 27.48319402 12.03333953 27.26011201 8.63867188 27.2734375 C7.95353516 27.26570313 7.26839844 27.25796875 6.5625 27.25 C5.5405957 27.26160156 5.5405957 27.26160156 4.49804688 27.2734375 C0.78590558 27.25889434 -0.83589372 27.10940418 -4 25 C-4.1875 21.875 -4.1875 21.875 -4 19 C-2.35 18.67 -0.7 18.34 1 18 C0.67 17.34 0.34 16.68 0 16 C-2.60943058 17.0645852 -2.60943058 17.0645852 -5 19 C-5.41666667 22 -5.41666667 22 -5 25 C-5 25.99 -5 26.98 -5 28 C-5.66 28 -6.32 28 -7 28 C-7 28.66 -7 29.32 -7 30 C-4.69 30.66 -2.38 31.32 0 32 C0 33.32 0 34.64 0 36 C-0.99 36 -1.98 36 -3 36 C-3 35.34 -3 34.68 -3 34 C-5.07553648 33.4465236 -6.84365964 33 -9 33 C-9.33 33.66 -9.66 34.32 -10 35 C-10.66 35 -11.32 35 -12 35 C-12 32.36 -12 29.72 -12 27 C-12.99 27 -13.98 27 -15 27 C-15.66 27 -16.32 27 -17 27 C-16.01 24.03 -15.02 21.06 -14 18 C-15.98 18.33 -17.96 18.66 -20 19 C-20.72711093 13.36777565 -20.72921033 9.08388664 -17.1875 4.4375 C-13.31708043 0.49569975 -9.73484455 0.05621726 -4.35546875 -0.0625 C-2.90400723 -0.02398692 -1.45197239 0 0 0 Z " fill="#4D9998" transform="translate(76,55)"/>
<path d="M0 0 C3.46622793 -0.02433661 6.92859417 -0.00865475 10.39453125 0.03515625 C10.39453125 1.02515625 10.39453125 2.01515625 10.39453125 3.03515625 C11.71453125 2.70515625 13.03453125 2.37515625 14.39453125 2.03515625 C14.88953125 5.00515625 14.88953125 5.00515625 15.39453125 8.03515625 C14.40453125 8.03515625 13.41453125 8.03515625 12.39453125 8.03515625 C11.73453125 7.04515625 11.07453125 6.05515625 10.39453125 5.03515625 C10.39453125 6.02515625 10.39453125 7.01515625 10.39453125 8.03515625 C7.31835938 8.328125 7.31835938 8.328125 4.2421875 8.62109375 C3.63246094 8.75773437 3.02273437 8.894375 2.39453125 9.03515625 C2.06453125 9.69515625 1.73453125 10.35515625 1.39453125 11.03515625 C0.07453125 11.03515625 -1.24546875 11.03515625 -2.60546875 11.03515625 C-2.60546875 10.04515625 -2.60546875 9.05515625 -2.60546875 8.03515625 C-3.59546875 8.03515625 -4.58546875 8.03515625 -5.60546875 8.03515625 C-5.60546875 9.35515625 -5.60546875 10.67515625 -5.60546875 12.03515625 C-6.59546875 12.03515625 -7.58546875 12.03515625 -8.60546875 12.03515625 C-8.60546875 11.04515625 -8.60546875 10.05515625 -8.60546875 9.03515625 C-9.26546875 9.03515625 -9.92546875 9.03515625 -10.60546875 9.03515625 C-10.27546875 11.01515625 -9.94546875 12.99515625 -9.60546875 15.03515625 C-8.61546875 14.70515625 -7.62546875 14.37515625 -6.60546875 14.03515625 C-6.77046875 14.77765625 -6.93546875 15.52015625 -7.10546875 16.28515625 C-7.72472571 19.22522203 -7.72472571 19.22522203 -7.60546875 23.03515625 C-7.90361115 24.37679704 -8.22790067 25.71366798 -8.60546875 27.03515625 C-11.4978119 27.86154001 -13.49289306 28.03515625 -16.60546875 28.03515625 C-16.60546875 26.71515625 -16.60546875 25.39515625 -16.60546875 24.03515625 C-17.59546875 24.03515625 -18.58546875 24.03515625 -19.60546875 24.03515625 C-19.27546875 24.36515625 -18.94546875 24.69515625 -18.60546875 25.03515625 C-18.56483043 26.7013274 -18.56274775 28.3690372 -18.60546875 30.03515625 C-20.25546875 30.36515625 -21.90546875 30.69515625 -23.60546875 31.03515625 C-23.93546875 29.71515625 -24.26546875 28.39515625 -24.60546875 27.03515625 C-26.58546875 27.69515625 -28.56546875 28.35515625 -30.60546875 29.03515625 C-30.28191406 28.47570312 -29.95835938 27.91625 -29.625 27.33984375 C-28.49323146 24.78143976 -28.37527839 22.94135573 -28.29296875 20.16015625 C-27.69185323 13.63375913 -24.9084882 10.97776577 -20.109375 6.9296875 C-13.18695947 1.50504843 -8.57493494 0.08361258 0 0 Z " fill="#97F5F6" transform="translate(65.60546875,32.96484375)"/>
<path d="M0 0 C1.22265625 2.13671875 1.22265625 2.13671875 2 4 C1.50113281 3.6390625 1.00226563 3.278125 0.48828125 2.90625 C-6.23580845 -1.43966076 -12.11990203 -1.92768349 -20 -1 C-25.32111885 0.64470946 -29.27035458 4.14928584 -32 9 C-32.74622058 12.34579947 -32.98622542 15.57701606 -33 19 C-31.02 18.67 -29.04 18.34 -27 18 C-26.73781251 21.14624993 -26.75245633 22.61837017 -28.5 25.3125 C-28.995 25.869375 -29.49 26.42625 -30 27 C-28.35 26.34 -26.7 25.68 -25 25 C-24.25073929 28.66305234 -23.7619986 31.42355152 -25 35 C-24.34 35 -23.68 35 -23 35 C-22.34 33.68 -21.68 32.36 -21 31 C-18.5 32.375 -18.5 32.375 -16 34 C-16 34.66 -16 35.32 -16 36 C-15.01 36 -14.02 36 -13 36 C-13 34.68 -13 33.36 -13 32 C-13.78375 31.855625 -14.5675 31.71125 -15.375 31.5625 C-18 31 -18 31 -20 30 C-20 28 -20 28 -18 26 C-18.33 25.67 -18.66 25.34 -19 25 C-19.46332046 19.67181467 -19.46332046 19.67181467 -17.75 17.1875 C-15.83408198 15.88741278 -14.27029534 15.39143023 -12 15 C-12 15.99 -12 16.98 -12 18 C-13.32 18.33 -14.64 18.66 -16 19 C-16 20.98 -16 22.96 -16 25 C-12.99699703 26.50150148 -9.91775628 26.30640091 -6.625 26.375 C-5.95210937 26.41238281 -5.27921875 26.44976562 -4.5859375 26.48828125 C-2.32243282 26.58175672 -2.32243282 26.58175672 1 26 C3.50724818 23.63262041 3.50724818 23.63262041 5 21 C5.66 21.66 6.32 22.32 7 23 C6.89779197 27.49715318 5.54514772 30.280576 2.52734375 33.61328125 C-3.11687141 38.73782443 -9.26436338 40.33262089 -16.69921875 40.2109375 C-23.34294966 39.60183484 -28.60073548 35.77439561 -33 31 C-37.10390667 24.64556387 -36.79650692 17.363264 -36 10 C-34.3125 6.4375 -34.3125 6.4375 -32 4 C-31.195625 3.113125 -30.39125 2.22625 -29.5625 1.3125 C-21.0173193 -6.39900453 -9.4105182 -7.10866483 0 0 Z " fill="#165A71" transform="translate(89,55)"/>
<path d="M0 0 C7.59 0 15.18 0 23 0 C23 5.58369631 22.28496655 8.31101581 19.8125 13 C19.22082031 14.175625 18.62914062 15.35125 18.01953125 16.5625 C10.67562941 29.06275845 -0.54376678 34.26628836 -13.9296875 38.62890625 C-17.04316144 39.18698177 -20.09165616 39.09174392 -23.25 39.0625 C-24.51328125 39.05347656 -25.7765625 39.04445312 -27.078125 39.03515625 C-28.04234375 39.02355469 -29.0065625 39.01195312 -30 39 C-30.33 38.34 -30.66 37.68 -31 37 C-23.08 36.505 -23.08 36.505 -15 36 C-14.67 33.36 -14.34 30.72 -14 28 C-13.360625 27.87625 -12.72125 27.7525 -12.0625 27.625 C-11.381875 27.41875 -10.70125 27.2125 -10 27 C-9.67 26.34 -9.34 25.68 -9 25 C-7.35636866 24.27840576 -5.68949614 23.60648579 -4 23 C-4.47086523 20.25328618 -5.04510078 17.89225925 -6.125 15.3125 C-6.41375 14.549375 -6.7025 13.78625 -7 13 C-6.67 12.34 -6.34 11.68 -6 11 C-2.09714233 12.58667578 0.33520982 15.13350481 3.25 18.125 C4.14203125 19.03507812 5.0340625 19.94515625 5.953125 20.8828125 C6.62859375 21.58148438 7.3040625 22.28015625 8 23 C7.34 22.01 6.68 21.02 6 20 C6.875 16.8125 6.875 16.8125 8 14 C9.32 14 10.64 14 12 14 C12 13.34 12 12.68 12 12 C8.04 11.67 4.08 11.34 0 11 C0 10.67 0 10.34 0 10 C6.27 9.67 12.54 9.34 19 9 C19.33 8.34 19.66 7.68 20 7 C13.07 7 6.14 7 -1 7 C-1 6.34 -1 5.68 -1 5 C6.26 5 13.52 5 21 5 C21 4.01 21 3.02 21 2 C14.07 2 7.14 2 0 2 C0 1.34 0 0.68 0 0 Z " fill="#103C67" transform="translate(97,82)"/>
<path d="M0 0 C0.91026797 3.07215439 1.25288404 5.79680216 1 9 C0.34 9.66 -0.32 10.32 -1 11 C0.65 10.67 2.3 10.34 4 10 C4.33 10.99 4.66 11.98 5 13 C6.32 13 7.64 13 9 13 C9 11.35 9 9.7 9 8 C7.68 7.34 6.36 6.68 5 6 C5.99 6 6.98 6 8 6 C8.33 5.01 8.66 4.02 9 3 C9.33 3.99 9.66 4.98 10 6 C10.99 6 11.98 6 13 6 C12.67 7.65 12.34 9.3 12 11 C13.65 10.67 15.3 10.34 17 10 C17.33 10.99 17.66 11.98 18 13 C17.67 13.66 17.34 14.32 17 15 C16.76970044 17.37123246 16.58880058 19.74741943 16.4375 22.125 C16.293125 24.39375 16.14875 26.6625 16 29 C8.74 29 1.48 29 -6 29 C-6.33 29.66 -6.66 30.32 -7 31 C-6.73869113 19.85517651 -6.39371559 9.59057338 0 0 Z " fill="#3CD0E2" transform="translate(37,50)"/>
<path d="M0 0 C4.95 0.33 9.9 0.66 15 1 C14.67 1.99 14.34 2.98 14 4 C12.329375 4.12375 12.329375 4.12375 10.625 4.25 C7.02198694 4.59973089 7.02198694 4.59973089 5.5625 6.75 C4.92239411 9.31042356 4.72336031 11.37192293 5 14 C5.66 14.66 6.32 15.32 7 16 C7 16.99 7 17.98 7 19 C8.32 19 9.64 19 11 19 C11 19.66 11 20.32 11 21 C9.02 21.33 7.04 21.66 5 22 C5 21.34 5 20.68 5 20 C4.01 20.33 3.02 20.66 2 21 C1.67 21.99 1.34 22.98 1 24 C-8.02799377 23.56316159 -14.88958714 20.56467094 -22 15 C-20.59155282 11.78475695 -18.89655214 9.67816132 -16.375 7.25 C-15.42753906 6.32960938 -15.42753906 6.32960938 -14.4609375 5.390625 C-13.73777344 4.70226562 -13.73777344 4.70226562 -13 4 C-11.75453595 6.49092811 -12.2232422 7.41080733 -13 10 C-9.91190305 11.76462683 -8.76687864 12 -5 12 C-4.92572162 8.65747276 -4.93453047 6.1964086 -6 3 C-5.34 3 -4.68 3 -4 3 C-4 3.66 -4 4.32 -4 5 C-2.68 4.67 -1.36 4.34 0 4 C0 2.68 0 1.36 0 0 Z " fill="#199FD8" transform="translate(67,94)"/>
<path d="M0 0 C9.57321922 8.44695814 14.09952108 20.20654765 15.3828125 32.73828125 C15.79285719 45.90071585 12.47415653 57.18738688 5 68 C4.34 67.67 3.68 67.34 3 67 C2.34 67 1.68 67 1 67 C0.01 67.99 0.01 67.99 -1 69 C-1.99 68.67 -2.98 68.34 -4 68 C-3.113125 67.071875 -2.22625 66.14375 -1.3125 65.1875 C7.99549188 54.37964213 8.94502654 41.62258842 8 28 C7.34401621 24.47728185 6.37325995 21.30252271 5 18 C4.608125 16.96875 4.21625 15.9375 3.8125 14.875 C3.544375 14.25625 3.27625 13.6375 3 13 C3.66 12.67 4.32 12.34 5 12 C3.97977128 9.25323037 2.89494656 6.82625778 1.375 4.3125 C0 2 0 2 0 0 Z " fill="#C0CBCC" transform="translate(112,38)"/>
<path d="M0 0 C0.33 0 0.66 0 1 0 C1.33 4.62 1.66 9.24 2 14 C9.26 14.33 16.52 14.66 24 15 C24 15.33 24 15.66 24 16 C17.07 16 10.14 16 3 16 C3 17.32 3 18.64 3 20 C10.26 20 17.52 20 25 20 C25 20.33 25 20.66 25 21 C18.07 21 11.14 21 4 21 C4.33 21.99 4.66 22.98 5 24 C11.6 24.33 18.2 24.66 25 25 C25 25.33 25 25.66 25 26 C18.73 26 12.46 26 6 26 C9.09260457 32.45988002 9.09260457 32.45988002 13 38 C16.30118794 37.4194679 17.91134076 36.45131901 20.234375 34.05859375 C20.80800781 33.47529297 21.38164063 32.89199219 21.97265625 32.29101562 C22.55917969 31.67935547 23.14570312 31.06769531 23.75 30.4375 C24.35199219 29.82197266 24.95398438 29.20644531 25.57421875 28.57226562 C27.05634381 27.05485187 28.5290967 25.52829404 30 24 C30 27 30 27 28.82250977 28.50219727 C28.28424561 29.01838623 27.74598145 29.5345752 27.19140625 30.06640625 C26.31838867 30.9181543 26.31838867 30.9181543 25.42773438 31.78710938 C24.81220703 32.37298828 24.19667969 32.95886719 23.5625 33.5625 C22.35337718 34.72830335 21.14624786 35.89617887 19.94140625 37.06640625 C19.40201416 37.58146729 18.86262207 38.09652832 18.30688477 38.62719727 C16.88431169 39.98737461 16.88431169 39.98737461 16 42 C16.56332031 42.2784375 17.12664063 42.556875 17.70703125 42.84375 C19.23588929 43.61469034 20.75439431 44.406513 22.26171875 45.21875 C27.82452117 48.15691295 32.80466908 49.90082839 39 51 C39.33 49.68 39.66 48.36 40 47 C40.99 47 41.98 47 43 47 C43 47.66 43 48.32 43 49 C45.97 48.505 45.97 48.505 49 48 C49 47.34 49 46.68 49 46 C47.68 46 46.36 46 45 46 C45 45.01 45 44.02 45 43 C45.61875 42.731875 46.2375 42.46375 46.875 42.1875 C49.2995233 41.04443152 49.2995233 41.04443152 51 38 C51.33 38.33 51.66 38.66 52 39 C52.66 37.35 53.32 35.7 54 34 C54.66 34 55.32 34 56 34 C59.11450382 38.15267176 59.11450382 38.15267176 58.6875 41.3125 C58.460625 41.869375 58.23375 42.42625 58 43 C57.01 43 56.02 43 55 43 C54.81824219 43.84884766 54.81824219 43.84884766 54.6328125 44.71484375 C54.46523437 45.44832031 54.29765625 46.18179688 54.125 46.9375 C53.96257812 47.66839844 53.80015625 48.39929688 53.6328125 49.15234375 C53 51 53 51 51 52 C38.99382121 53.82482331 29.66162331 52.99440077 19.18359375 46.1640625 C9.29647366 38.70820145 2.84176194 29.05895503 0 17 C-0.21913938 14.01354959 -0.19166573 11.05476579 -0.125 8.0625 C-0.11597656 7.28326172 -0.10695313 6.50402344 -0.09765625 5.70117188 C-0.07433691 3.80064553 -0.03847586 1.90027992 0 0 Z " fill="#146A8B" transform="translate(29,67)"/>
<path d="M0 0 C-0.33 0.66 -0.66 1.32 -1 2 C0.11707614 5.72358715 0.6729664 6.7819776 4 9 C3.67 10.65 3.34 12.3 3 14 C-0.63 14.33 -4.26 14.66 -8 15 C-7.67 16.32 -7.34 17.64 -7 19 C-8.32 19 -9.64 19 -11 19 C-11.33 20.65 -11.66 22.3 -12 24 C-4.74 24 2.52 24 10 24 C10 24.99 10 25.98 10 27 C2.41 27 -5.18 27 -13 27 C-13.45572917 24.03776042 -13.91145833 21.07552083 -14.3671875 18.11328125 C-14.95893069 15.20205086 -15.8031806 12.71044393 -17 10 C-16.27683594 9.29423828 -16.27683594 9.29423828 -15.5390625 8.57421875 C-14.90742187 7.95160156 -14.27578125 7.32898437 -13.625 6.6875 C-12.68527344 5.76517578 -12.68527344 5.76517578 -11.7265625 4.82421875 C-9.81913393 2.91187472 -9.81913393 2.91187472 -8 0 C-4.71023192 -1.09658936 -3.28696233 -0.79953138 0 0 Z " fill="#3FC5E6" transform="translate(110,49)"/>
<path d="M0 0 C3.84223567 1.50944973 5.51995823 3.76843042 8 7 C9.2375 8.2375 9.2375 8.2375 10.5 9.5 C12.87675345 11.87675345 14.94892056 14.34119332 17 17 C13.12678907 15.42369323 10.75264837 12.92252331 7.875 9.9375 C4.75894235 6.53546517 4.75894235 6.53546517 1 4 C1.54723683 7.37462715 2.0549 9.08235 4 12 C3.625 14.6875 3.625 14.6875 3 17 C0.6875 17.6875 0.6875 17.6875 -2 18 C-3.8125 16.75 -3.8125 16.75 -5 15 C-5 14.01 -5 13.02 -5 12 C-5.66 12 -6.32 12 -7 12 C-7.33 14.31 -7.66 16.62 -8 19 C-8.66 18.34 -9.32 17.68 -10 17 C-10.99 18.32 -11.98 19.64 -13 21 C-17.875 20.125 -17.875 20.125 -19 19 C-19.30853517 16.14604971 -19.19902397 14.40975523 -17.9375 11.8125 C-15.27105157 9.3180805 -12.48767274 8.90421145 -9 8 C-8.67 7.34 -8.34 6.68 -8 6 C-8.99 5.67 -9.98 5.34 -11 5 C-10.45730469 4.80664062 -9.91460937 4.61328125 -9.35546875 4.4140625 C-8.64003906 4.15367188 -7.92460938 3.89328125 -7.1875 3.625 C-6.47980469 3.36976562 -5.77210937 3.11453125 -5.04296875 2.8515625 C-2.75226641 1.9734231 -2.75226641 1.9734231 0 0 Z " fill="#1A8CC0" transform="translate(90,89)"/>
<path d="M0 0 C5.50403687 2.22301273 7.59289117 6.80819665 10 12 C11.59806496 17.23975203 13 22.50020022 13 28 C5.74 28 -1.52 28 -9 28 C-8.67 25.69 -8.34 23.38 -8 21 C-7.67 21.66 -7.34 22.32 -7 23 C-6.01 23 -5.02 23 -4 23 C-4.7763932 19.9254644 -4.7763932 19.9254644 -7 18 C-0.565 17.505 -0.565 17.505 6 17 C6.46386348 13.01472954 6.46386348 13.01472954 4.0625 11 C3.381875 10.34 2.70125 9.68 2 9 C1.3125 6.8125 1.3125 6.8125 1 5 C-0.44754255 3.55245745 -2.03962913 3.44266439 -4 3 C-2.68 2.01 -1.36 1.02 0 0 Z " fill="#0F6EAC" transform="translate(107,45)"/>
<path d="M0 0 C2.45911114 2.3908025 4.78519465 4.71660134 6.859375 7.453125 C12.93333079 14.67980232 22.81214415 19.36108517 32 21 C38.66502835 21.4259851 45.33094443 21.23723913 52 21 C51.0234375 22.97265625 51.0234375 22.97265625 49 25 C46.05891778 25.38666402 43.55810251 25.51970545 40.625 25.4375 C39.42411743 25.42203125 39.42411743 25.42203125 38.19897461 25.40625 C32.04081817 25.23899902 26.44984294 24.2965084 20.50390625 22.65625 C17.94774866 21.87323625 17.94774866 21.87323625 15 22 C15 21.34 15 20.68 15 20 C13.35 19.67 11.7 19.34 10 19 C10 18.34 10 17.68 10 17 C9.01 17 8.02 17 7 17 C7 16.34 7 15.68 7 15 C6.05125 14.835 5.1025 14.67 4.125 14.5 C1 13 1 13 0.12109375 11.26171875 C-0.95478244 7.26668198 -1.25698639 4.02235644 0 0 Z " fill="#BFC8C8" transform="translate(35,99)"/>
<path d="M0 0 C0.33 0.99 0.66 1.98 1 3 C-0.32 3.33 -1.64 3.66 -3 4 C-3 5.98 -3 7.96 -3 10 C0.00300297 11.50150148 3.08224372 11.30640091 6.375 11.375 C7.04789063 11.41238281 7.72078125 11.44976562 8.4140625 11.48828125 C10.67756718 11.58175672 10.67756718 11.58175672 14 11 C16.50724818 8.63262041 16.50724818 8.63262041 18 6 C18.66 6.66 19.32 7.32 20 8 C19.89783387 12.49530954 18.55342141 15.29224099 15.515625 18.609375 C11.72456129 22.08777366 8.31832802 23.91629663 3.0625 24.25 C2.051875 24.1675 1.04125 24.085 0 24 C-1.04449911 20.86650268 -0.93423645 20.01031744 0 17 C-1.175625 16.7834375 -1.175625 16.7834375 -2.375 16.5625 C-5 16 -5 16 -7 15 C-7 13 -7 13 -5 11 C-5.33 10.67 -5.66 10.34 -6 10 C-6.46580407 4.64325323 -6.46580407 4.64325323 -4.6875 2.1875 C-3 1 -3 1 0 0 Z " fill="#124668" transform="translate(76,70)"/>
<path d="M0 0 C2 2 2 2 2 5 C3.32 5.33 4.64 5.66 6 6 C6.125 8.875 6.125 8.875 6 12 C3.51680598 14.48319402 2.03333953 14.26011201 -1.36132812 14.2734375 C-2.04646484 14.26570313 -2.73160156 14.25796875 -3.4375 14.25 C-4.11876953 14.25773437 -4.80003906 14.26546875 -5.50195312 14.2734375 C-9.21409442 14.25889434 -10.83589372 14.10940418 -14 12 C-14.1875 8.875 -14.1875 8.875 -14 6 C-12.35 5.67 -10.7 5.34 -9 5 C-8.814375 4.0409375 -8.814375 4.0409375 -8.625 3.0625 C-8.41875 2.381875 -8.2125 1.70125 -8 1 C-5.23749964 -0.38125018 -3.05268901 -0.19079306 0 0 Z " fill="#E6E8E4" transform="translate(86,68)"/>
<path d="M0 0 C7.59 0 15.18 0 23 0 C23 6.75 23 6.75 21 10.875 C20.62875 11.65617187 20.2575 12.43734375 19.875 13.2421875 C19.441875 14.11230469 19.441875 14.11230469 19 15 C18.34 15 17.68 15 17 15 C16.38125 15.94875 15.7625 16.8975 15.125 17.875 C13.12075527 20.82241872 12.25209269 21.83853833 9 23 C8.01 22.01 7.02 21.02 6 20 C6.66 18.02 7.32 16.04 8 14 C9.32 14 10.64 14 12 14 C12 13.34 12 12.68 12 12 C8.04 11.67 4.08 11.34 0 11 C0 10.67 0 10.34 0 10 C6.27 9.67 12.54 9.34 19 9 C19.33 8.34 19.66 7.68 20 7 C13.07 7 6.14 7 -1 7 C-1 6.34 -1 5.68 -1 5 C6.26 5 13.52 5 21 5 C21 4.01 21 3.02 21 2 C14.07 2 7.14 2 0 2 C0 1.34 0 0.68 0 0 Z " fill="#0D4374" transform="translate(97,82)"/>
<path d="M0 0 C2.875 1.375 2.875 1.375 5 3 C5 3.66 5 4.32 5 5 C3.68 5 2.36 5 1 5 C0.773125 5.763125 0.54625 6.52625 0.3125 7.3125 C-1 10 -1 10 -3.625 11.4375 C-4.40875 11.953125 -5.1925 12.46875 -6 13 C-6.41666667 16 -6.41666667 16 -6 19 C-6 19.99 -6 20.98 -6 22 C-9.2144374 21.77039733 -10.08102784 20.91240233 -12.3125 18.5 C-14.4891397 13.98548804 -14.5406893 10.75337665 -13 6 C-8.97499942 1.04615314 -6.34265158 -0.49746287 0 0 Z " fill="#FEF970" transform="translate(77,61)"/>
<path d="M0 0 C0.33 0.66 0.66 1.32 1 2 C0.67 2.66 0.34 3.32 0 4 C1.32 4 2.64 4 4 4 C4.33 3.01 4.66 2.02 5 1 C6.65 1.33 8.3 1.66 10 2 C10 2.66 10 3.32 10 4 C10.99 4 11.98 4 13 4 C13 5.65 13 7.3 13 9 C12.11957031 9.31453125 11.23914063 9.6290625 10.33203125 9.953125 C9.17058594 10.38109375 8.00914063 10.8090625 6.8125 11.25 C5.08966797 11.87648438 5.08966797 11.87648438 3.33203125 12.515625 C0.04647435 13.9792963 -2.31361168 15.63233572 -5 18 C-6.60339848 14.88228073 -7.18974141 13.60988311 -6.125 10.1875 C-5.75375 9.465625 -5.3825 8.74375 -5 8 C-5.99 8 -6.98 8 -8 8 C-8 6.02 -8 4.04 -8 2 C-7.34 2 -6.68 2 -6 2 C-6 2.99 -6 3.98 -6 5 C-5.01 5 -4.02 5 -3 5 C-3 3.68 -3 2.36 -3 1 C-2.01 0.67 -1.02 0.34 0 0 Z " fill="#5BE4EC" transform="translate(63,40)"/>
<path d="M0 0 C4.34170523 2.3836813 8.2064129 4.78119883 12 8 C10.92587492 11.22237524 10.36773396 11.74191327 7.8125 13.75 C4.52525875 16.44202062 1.89137536 19.35119064 -0.73828125 22.6796875 C-1.15464844 23.11539063 -1.57101563 23.55109375 -2 24 C-2.66 24 -3.32 24 -4 24 C-2.34908222 19.70761377 0.73754566 17.1206085 4 14 C3.34 12.35 2.68 10.7 2 9 C1.34 10.32 0.68 11.64 0 13 C-3.375 13.125 -3.375 13.125 -7 13 C-7.66 12.34 -8.32 11.68 -9 11 C-8.44444444 6.44444444 -8.44444444 6.44444444 -7 5 C-5.00041636 4.95919217 -2.99954746 4.95745644 -1 5 C-0.67 3.35 -0.34 1.7 0 0 Z " fill="#21C9E9" transform="translate(95,34)"/>
<path d="M0 0 C1.86785156 0.01353516 1.86785156 0.01353516 3.7734375 0.02734375 C5.18496094 0.04474609 5.18496094 0.04474609 6.625 0.0625 C6.625 1.0525 6.625 2.0425 6.625 3.0625 C7.945 2.7325 9.265 2.4025 10.625 2.0625 C10.955 4.0425 11.285 6.0225 11.625 8.0625 C10.635 8.0625 9.645 8.0625 8.625 8.0625 C7.965 7.0725 7.305 6.0825 6.625 5.0625 C6.625 6.0525 6.625 7.0425 6.625 8.0625 C3.54882812 8.35546875 3.54882812 8.35546875 0.47265625 8.6484375 C-0.13707031 8.78507812 -0.74679688 8.92171875 -1.375 9.0625 C-1.705 9.7225 -2.035 10.3825 -2.375 11.0625 C-3.695 11.0625 -5.015 11.0625 -6.375 11.0625 C-6.375 10.0725 -6.375 9.0825 -6.375 8.0625 C-7.695 7.7325 -9.015 7.4025 -10.375 7.0625 C-10.045 6.0725 -9.715 5.0825 -9.375 4.0625 C-10.365 4.7225 -11.355 5.3825 -12.375 6.0625 C-13.365 5.7325 -14.355 5.4025 -15.375 5.0625 C-14.75 3.125 -14.75 3.125 -13.375 1.0625 C-8.9070638 -0.00129433 -4.57626918 -0.04317235 0 0 Z " fill="#6FF4F6" transform="translate(69.375,32.9375)"/>
<path d="M0 0 C7.59 0 15.18 0 23 0 C25 5 25 5 25 8 C17.08 8 9.16 8 1 8 C0.67 5.36 0.34 2.72 0 0 Z " fill="#A1D5DD" transform="translate(31,79)"/>
<path d="M0 0 C2.52197266 -0.2487793 2.52197266 -0.2487793 5.6640625 -0.07421875 C7.34628906 0.00795898 7.34628906 0.00795898 9.0625 0.09179688 C10.238125 0.16462891 11.41375 0.23746094 12.625 0.3125 C14.40003906 0.4043457 14.40003906 0.4043457 16.2109375 0.49804688 C19.14164579 0.65167271 22.0708392 0.81957381 25 1 C25 1.33 25 1.66 25 2 C17.74 2 10.48 2 3 2 C3 2.66 3 3.32 3 4 C9.93 4 16.86 4 24 4 C23.67 4.99 23.34 5.98 23 7 C18.545 7.495 18.545 7.495 14 8 C14.66 8.33 15.32 8.66 16 9 C16 9.66 16 10.32 16 11 C14.68 11 13.36 11 12 11 C11.34 12.65 10.68 14.3 10 16 C9.01 15.34 8.02 14.68 7 14 C7 13.34 7 12.68 7 12 C6.01 11.67 5.02 11.34 4 11 C2.39453125 9.15234375 2.39453125 9.15234375 0.8125 6.9375 C0.28269531 6.20402344 -0.24710937 5.47054687 -0.79296875 4.71484375 C-1.19128906 4.14894531 -1.58960937 3.58304687 -2 3 C-1.34 2.01 -0.68 1.02 0 0 Z " fill="#195F92" transform="translate(93,85)"/>
<path d="M0 0 C9.06066849 7.99470749 14.37537022 19.78352381 15.19140625 31.82421875 C14.94662169 34.60676982 13.96674167 35.11192799 12 37 C11.27802838 39.60611077 11.27802838 39.60611077 11 42 C10.67 42 10.34 42 10 42 C9.89042969 41.10539062 9.78085938 40.21078125 9.66796875 39.2890625 C8.46162308 30.08945083 6.69919483 21.53660345 3 13 C3.66 12.67 4.32 12.34 5 12 C3.97977128 9.25323037 2.89494656 6.82625778 1.375 4.3125 C0 2 0 2 0 0 Z " fill="#CFD6D6" transform="translate(112,38)"/>
<path d="M0 0 C0.33 0 0.66 0 1 0 C1 1.65 1 3.3 1 5 C2.98 4.67 4.96 4.34 7 4 C7.26218749 7.14624993 7.24754367 8.61837017 5.5 11.3125 C4.7575 12.1478125 4.7575 12.1478125 4 13 C5.65 12.34 7.3 11.68 9 11 C9.74926071 14.66305234 10.2380014 17.42355152 9 21 C9.66 21 10.32 21 11 21 C11.66 19.68 12.32 18.36 13 17 C15.5 18.375 15.5 18.375 18 20 C18 20.66 18 21.32 18 22 C18.66 22 19.32 22 20 22 C20.33 22.66 20.66 23.32 21 24 C21.99 24.66 22.98 25.32 24 26 C17.81348769 26.37876606 13.50867077 25.92296816 8 23 C5.64046906 20.64046906 5.50858587 19.22104383 5 16 C4.34 16 3.68 16 3 16 C0.1647887 10.4477112 -0.37952295 6.19887485 0 0 Z " fill="#267A92" transform="translate(55,69)"/>
<path d="M0 0 C-3.94047679 2.54599171 -8.14331846 2.54935019 -12.6875 2.9375 C-23.13274638 3.99728302 -29.99586787 5.62610967 -38.15234375 12.57421875 C-40 14 -40 14 -42 14 C-42.26941406 14.57363281 -42.53882813 15.14726563 -42.81640625 15.73828125 C-44.0267408 18.05109876 -45.41906892 20.06633291 -46.9375 22.1875 C-51.98394214 29.72023802 -53.45755749 37.0403462 -54 46 C-54.33 46 -54.66 46 -55 46 C-56.43008907 37.82362119 -55.71774191 32.39675735 -52 25 C-51.5359375 24.03126953 -51.5359375 24.03126953 -51.0625 23.04296875 C-50.39996681 21.68286456 -49.70462273 20.33878319 -49 19 C-48.34 19 -47.68 19 -47 19 C-46.76410156 18.4328125 -46.52820312 17.865625 -46.28515625 17.28125 C-41.55523004 8.88527157 -32.67409506 4.02920641 -23.77734375 1.32421875 C-15.97552943 -0.59041682 -7.97261703 -0.17804852 0 0 Z " fill="#337990" transform="translate(85,28)"/>
<path d="M0 0 C4.95 0.33 9.9 0.66 15 1 C14.67 1.99 14.34 2.98 14 4 C12.88625 4.0825 11.7725 4.165 10.625 4.25 C7.02198694 4.59973089 7.02198694 4.59973089 5.5625 6.75 C4.72023662 10.11905354 4.42355582 12.84711164 6 16 C4.68 15.67 3.36 15.34 2 15 C1.34 16.32 0.68 17.64 0 19 C-0.99 18.67 -1.98 18.34 -3 18 C-3 15.69 -3 13.38 -3 11 C-3.33 11 -3.66 11 -4 11 C-4.66 8.36 -5.32 5.72 -6 3 C-5.34 3 -4.68 3 -4 3 C-4 3.66 -4 4.32 -4 5 C-2.68 4.67 -1.36 4.34 0 4 C0 2.68 0 1.36 0 0 Z " fill="#23B1DF" transform="translate(67,94)"/>
<path d="M0 0 C2.28717986 3.43076979 2.12745817 4.34451609 1.875 8.3125 C1.75416325 13.69328924 2.62032335 15.90342224 6 20 C6.33 20.99 6.66 21.98 7 23 C10.51190809 24.22969878 10.51190809 24.22969878 14 25 C14 26.32 14 27.64 14 29 C13.01 29 12.02 29 11 29 C11 28.34 11 27.68 11 27 C8.92446352 26.4465236 7.15634036 26 5 26 C4.67 26.66 4.34 27.32 4 28 C3.34 28 2.68 28 2 28 C2 25.36 2 22.72 2 20 C1.01 20 0.02 20 -1 20 C-1.66 20 -2.32 20 -3 20 C-2.01 17.03 -1.02 14.06 0 11 C-1.98 11.33 -3.96 11.66 -6 12 C-6.36681223 4.54148472 -6.36681223 4.54148472 -4.6875 2.0625 C-3 1 -3 1 0 0 Z " fill="#6A9F7D" transform="translate(62,62)"/>
<path d="M0 0 C0.66 0 1.32 0 2 0 C5.11450382 4.15267176 5.11450382 4.15267176 4.6875 7.3125 C4.460625 7.869375 4.23375 8.42625 4 9 C3.01 9 2.02 9 1 9 C0.87882812 9.56589844 0.75765625 10.13179687 0.6328125 10.71484375 C0.46523437 11.44832031 0.29765625 12.18179688 0.125 12.9375 C-0.03742188 13.66839844 -0.19984375 14.39929688 -0.3671875 15.15234375 C-1 17 -1 17 -3 18 C-5.71262116 18.2322646 -8.40773126 18.41936235 -11.125 18.5625 C-11.87910156 18.60568359 -12.63320312 18.64886719 -13.41015625 18.69335938 C-15.27321888 18.7994832 -17.13658524 18.90025001 -19 19 C-18.67 18.34 -18.34 17.68 -18 17 C-17.01 17 -16.02 17 -15 17 C-14.67 15.68 -14.34 14.36 -14 13 C-13.01 13 -12.02 13 -11 13 C-11 13.66 -11 14.32 -11 15 C-9.02 14.67 -7.04 14.34 -5 14 C-5 13.34 -5 12.68 -5 12 C-6.32 12 -7.64 12 -9 12 C-9 11.01 -9 10.02 -9 9 C-8.38125 8.731875 -7.7625 8.46375 -7.125 8.1875 C-4.7004767 7.04443152 -4.7004767 7.04443152 -3 4 C-2.67 4.33 -2.34 4.66 -2 5 C-1.34 3.35 -0.68 1.7 0 0 Z " fill="#0F5489" transform="translate(83,101)"/>
<path d="M0 0 C6.27 0 12.54 0 19 0 C15.35242222 5.12397831 11.99924254 9.1910533 7 13 C5.82479354 11.40207898 4.66008753 9.79643092 3.5 8.1875 C2.8503125 7.29417969 2.200625 6.40085937 1.53125 5.48046875 C0 3 0 3 0 0 Z " fill="#2FC2E5" transform="translate(35,93)"/>
<path d="M0 0 C1.65 1.65 3.3 3.3 5 5 C4.67 5.33 4.34 5.66 4 6 C4.66 6.66 5.32 7.32 6 8 C5.01 8.33 4.02 8.66 3 9 C3 9.66 3 10.32 3 11 C-5.04926924 14.11584616 -12.43325085 14.33328851 -21 14 C-21.33 13.34 -21.66 12.68 -22 12 C-14.08 11.505 -14.08 11.505 -6 11 C-5.67 8.36 -5.34 5.72 -5 3 C-4.360625 2.87625 -3.72125 2.7525 -3.0625 2.625 C-2.381875 2.41875 -1.70125 2.2125 -1 2 C-0.67 1.34 -0.34 0.68 0 0 Z " fill="#194D7B" transform="translate(88,107)"/>
<path d="M0 0 C3.465 1.98 3.465 1.98 7 4 C7 5.32 7 6.64 7 8 C5.68 8.33 4.36 8.66 3 9 C3 9.33 3 9.66 3 10 C3 12 3 14 3 16 C-0.38391693 17.06351675 -1.5804634 17.21442982 -4.8125 15.5625 C-5.534375 15.046875 -6.25625 14.53125 -7 14 C-5.85955567 9.05807458 -4.75403955 6.3907454 -1 3 C-0.67 2.01 -0.34 1.02 0 0 Z " fill="#2CCBF0" transform="translate(60,90)"/>
<path d="M0 0 C4.06026821 2.03013411 6.65457376 4.42395554 9.75 7.625 C10.25660156 8.140625 10.76320313 8.65625 11.28515625 9.1875 C12.52803902 10.45383339 13.76465276 11.7263144 15 13 C14.01 14.485 14.01 14.485 13 16 C9.375 16.1875 9.375 16.1875 6 16 C6 14.68 6 13.36 6 12 C3.03312999 10.35173889 0.34373475 9.55728913 -3 9 C-2.01 6.03 -1.02 3.06 0 0 Z " fill="#70F4F6" transform="translate(43,45)"/>
<path d="M0 0 C0.66 0.33 1.32 0.66 2 1 C0.37982158 2.33918806 -1.24629343 3.6711969 -2.875 5 C-3.77992187 5.7425 -4.68484375 6.485 -5.6171875 7.25 C-8 9 -8 9 -10 9 C-10.13277344 9.62648438 -10.26554687 10.25296875 -10.40234375 10.8984375 C-10.66724609 12.12433594 -10.66724609 12.12433594 -10.9375 13.375 C-11.11152344 14.18710937 -11.28554688 14.99921875 -11.46484375 15.8359375 C-12 18 -12 18 -13 20 C-12.071875 20.433125 -12.071875 20.433125 -11.125 20.875 C-9 22 -9 22 -7 24 C-6.875 26.625 -6.875 26.625 -7 29 C-8.65 29.33 -10.3 29.66 -12 30 C-12.33 28.68 -12.66 27.36 -13 26 C-14.98 26.66 -16.96 27.32 -19 28 C-18.67644531 27.44054687 -18.35289063 26.88109375 -18.01953125 26.3046875 C-16.88776271 23.74628351 -16.76980964 21.90619948 -16.6875 19.125 C-16.22802876 14.13645515 -14.85102479 11.22720868 -11 8 C-7.40331763 5.2278735 -3.73732953 2.57882283 0 0 Z " fill="#5DD1DD" transform="translate(54,34)"/>
<path d="M0 0 C1.24546405 2.49092811 0.7767578 3.41080733 0 6 C0.825 6.45375 1.65 6.9075 2.5 7.375 C3.325 7.91125 4.15 8.4475 5 9 C5 9.66 5 10.32 5 11 C5.99 11.33 6.98 11.66 8 12 C8 12.66 8 13.32 8 14 C0.63856502 16.67533632 0.63856502 16.67533632 -3.37890625 15.01953125 C-5.34226183 13.765653 -7.19212446 12.46797523 -9 11 C-7.59155282 7.78475695 -5.89655214 5.67816132 -3.375 3.25 C-2.74335937 2.63640625 -2.11171875 2.0228125 -1.4609375 1.390625 C-0.73777344 0.70226562 -0.73777344 0.70226562 0 0 Z " fill="#20B0E1" transform="translate(54,98)"/>
<path d="M0 0 C2.97 0.495 2.97 0.495 6 1 C6.66 3.31 7.32 5.62 8 8 C11.63 8 15.26 8 19 8 C19 8.99 19 9.98 19 11 C11.74 11 4.48 11 -3 11 C-2.67 10.01 -2.34 9.02 -2 8 C-1.34 8 -0.68 8 0 8 C0 5.36 0 2.72 0 0 Z " fill="#8AE5EB" transform="translate(33,65)"/>
<path d="M0 0 C0.598125 0.639375 1.19625 1.27875 1.8125 1.9375 C3.90810337 4.20310389 3.90810337 4.20310389 7 5 C9 8 9 8 9 11 C9.66 11.33 10.32 11.66 11 12 C11 14.31 11 16.62 11 19 C10.34 18.67 9.68 18.34 9 18 C8.34 18.66 7.68 19.32 7 20 C6.67 18.35 6.34 16.7 6 15 C5.01 14.67 4.02 14.34 3 14 C2.30062468 12.68352881 1.63270867 11.34977849 1 10 C0.34 9.67 -0.32 9.34 -1 9 C-1.75 5.5625 -1.75 5.5625 -2 2 C-1.34 1.34 -0.68 0.68 0 0 Z " fill="#1B6483" transform="translate(85,59)"/>
<path d="M0 0 C2.1875 -0.3125 2.1875 -0.3125 5 0 C7.875 2.1875 7.875 2.1875 10 5 C9.6328125 7.67578125 9.6328125 7.67578125 9 10 C7.04174127 10.02694851 5.08337774 10.04637218 3.125 10.0625 C2.03445312 10.07410156 0.94390625 10.08570313 -0.1796875 10.09765625 C-3 10 -3 10 -5 9 C-4.67 7.35 -4.34 5.7 -4 4 C-3.01 4 -2.02 4 -1 4 C-0.67 2.68 -0.34 1.36 0 0 Z " fill="#DCE0DE" transform="translate(104,53)"/>
<path d="M0 0 C2.3369274 1.47497643 4.30849612 2.73227656 6.14453125 4.80078125 C6.14453125 6.12078125 6.14453125 7.44078125 6.14453125 8.80078125 C5.15453125 9.13078125 4.16453125 9.46078125 3.14453125 9.80078125 C2.15453125 8.15078125 1.16453125 6.50078125 0.14453125 4.80078125 C-1.49515625 5.35765625 -1.49515625 5.35765625 -3.16796875 5.92578125 C-4.38484375 6.21453125 -5.60171875 6.50328125 -6.85546875 6.80078125 C-7.84546875 6.14078125 -8.83546875 5.48078125 -9.85546875 4.80078125 C-9.52546875 3.48078125 -9.19546875 2.16078125 -8.85546875 0.80078125 C-9.84546875 1.29578125 -9.84546875 1.29578125 -10.85546875 1.80078125 C-12.5624961 1.87074139 -14.27214878 1.88518279 -15.98046875 1.86328125 C-16.89054687 1.85425781 -17.800625 1.84523437 -18.73828125 1.8359375 C-19.43695313 1.82433594 -20.135625 1.81273437 -20.85546875 1.80078125 C-15.89280804 -3.16187946 -6.10174015 -2.56256392 0 0 Z " fill="#29809A" transform="translate(84.85546875,54.19921875)"/>
<path d="M0 0 C1.32 1.32 2.64 2.64 4 4 C1.94544813 8.69018912 -1.3434055 11.47883493 -5 15 C-8.3 13.35 -11.6 11.7 -15 10 C-13.68 9.67 -12.36 9.34 -11 9 C-10.7525 8.34 -10.505 7.68 -10.25 7 C-9 5 -9 5 -7.1015625 4.515625 C-5.07483028 4.2738394 -3.03686891 4.1314109 -1 4 C-0.67 2.68 -0.34 1.36 0 0 Z " fill="#22B6D9" transform="translate(96,42)"/>
<path d="M0 0 C0.99 0.66 1.98 1.32 3 2 C2.59706614 7.64107398 0.94275538 10.14685269 -3 14 C-5.8125 14.875 -5.8125 14.875 -8 15 C-8 12 -8 12 -6 9 C-6.639375 9.165 -7.27875 9.33 -7.9375 9.5 C-11.97586652 10.15932515 -15.91807258 10.08003779 -20 10 C-20 9.67 -20 9.34 -20 9 C-18.865625 8.690625 -17.73125 8.38125 -16.5625 8.0625 C-13.21224901 7.37075469 -13.21224901 7.37075469 -12 6 C-10.54302929 5.89551604 -9.0842154 5.81611332 -7.625 5.75 C-5.19801253 5.58068216 -5.19801253 5.58068216 -3 5 C-0.8613923 2.61012067 -0.8613923 2.61012067 0 0 Z " fill="#092344" transform="translate(93,76)"/>
<path d="M0 0 C3.84938529 1.57556235 6.24588522 4.04353587 9.125 7 C9.99382812 7.886875 10.86265625 8.77375 11.7578125 9.6875 C12.49773437 10.450625 13.23765625 11.21375 14 12 C14.66 12.66 15.32 13.32 16 14 C14.68 14.33 13.36 14.66 12 15 C12 14.34 12 13.68 12 13 C10.02 13.33 8.04 13.66 6 14 C4.8000962 12.23754778 3.61540483 10.46473019 2.4375 8.6875 C1.77621094 7.70136719 1.11492187 6.71523437 0.43359375 5.69921875 C-0.27603516 4.36310547 -0.27603516 4.36310547 -1 3 C-0.67 2.01 -0.34 1.02 0 0 Z " fill="#135185" transform="translate(91,93)"/>
<path d="M0 0 C0.91026797 3.07215439 1.25288404 5.79680216 1 9 C0.34 9.66 -0.32 10.32 -1 11 C0.65 10.67 2.3 10.34 4 10 C4.625 11.875 4.625 11.875 5 14 C4.34 14.66 3.68 15.32 3 16 C-0.625 15.625 -0.625 15.625 -4 15 C-4 17.64 -4 20.28 -4 23 C-4.66 23 -5.32 23 -6 23 C-6.55846049 14.48347749 -4.77545951 7.16318926 0 0 Z " fill="#56D5DD" transform="translate(37,50)"/>
<path d="M0 0 C0 3 0 3 -1.17749023 4.50219727 C-1.71575439 5.01838623 -2.25401855 5.5345752 -2.80859375 6.06640625 C-3.39060547 6.63423828 -3.97261719 7.20207031 -4.57226562 7.78710938 C-5.18779297 8.37298828 -5.80332031 8.95886719 -6.4375 9.5625 C-7.64662282 10.72830335 -8.85375214 11.89617887 -10.05859375 13.06640625 C-10.59798584 13.58146729 -11.13737793 14.09652832 -11.69311523 14.62719727 C-13.11568831 15.98737461 -13.11568831 15.98737461 -14 18 C-13.44054688 18.2784375 -12.88109375 18.556875 -12.3046875 18.84375 C-10.74321284 19.6271339 -9.18601132 20.41908328 -7.6328125 21.21875 C-3.16101796 23.50340515 1.15603358 25.59779919 6 27 C6 27.33 6 27.66 6 28 C-3.97365187 27.34954444 -12.20490904 22.12655881 -19 15 C-20.8191746 12.72935141 -22.40607688 10.44069478 -24 8 C-23.01 8 -22.02 8 -21 8 C-18.8125 11 -18.8125 11 -17 14 C-13.69881206 13.4194679 -12.08865924 12.45131901 -9.765625 10.05859375 C-9.19199219 9.47529297 -8.61835937 8.89199219 -8.02734375 8.29101562 C-7.44082031 7.67935547 -6.85429688 7.06769531 -6.25 6.4375 C-5.64800781 5.82197266 -5.04601562 5.20644531 -4.42578125 4.57226562 C-2.94365619 3.05485187 -1.4709033 1.52829404 0 0 Z " fill="#216993" transform="translate(59,91)"/>
<path d="M0 0 C0.7425 0.2475 1.485 0.495 2.25 0.75 C2.25 1.41 2.25 2.07 2.25 2.75 C3.24 2.75 4.23 2.75 5.25 2.75 C5.25 4.4 5.25 6.05 5.25 7.75 C1.61576791 10.07590854 -1.52088331 9.91265833 -5.75 9.75 C-6.5 7 -6.5 7 -6.75 3.75 C-4.66788764 0.62683146 -3.81124618 -0.34647693 0 0 Z " fill="#54EBF3" transform="translate(70.75,41.25)"/>
<path d="M0 0 C1.65 0 3.3 0 5 0 C4.071875 0.0928125 4.071875 0.0928125 3.125 0.1875 C2.073125 0.5896875 2.073125 0.5896875 1 1 C0.690625 1.78375 0.38125 2.5675 0.0625 3.375 C-1 6 -1 6 -3.625 7.4375 C-4.40875 7.953125 -5.1925 8.46875 -6 9 C-6.41666667 12 -6.41666667 12 -6 15 C-6 15.99 -6 16.98 -6 18 C-8.66753731 17.63206382 -9.81998328 17.18001672 -11.75 15.25 C-13.21079991 12.62056017 -13.24687966 10.9625559 -13 8 C-9.14243493 5.84694043 -6.44870215 4.60746746 -2 5 C-2 4.01 -2 3.02 -2 2 C-1.34 2 -0.68 2 0 2 C0 1.34 0 0.68 0 0 Z " fill="#FBE226" transform="translate(77,65)"/>
<path d="M0 0 C0.33 0 0.66 0 1 0 C1 3.63 1 7.26 1 11 C-6.26 11 -13.52 11 -21 11 C-21.33 11.66 -21.66 12.32 -22 13 C-22 11.35 -22 9.7 -22 8 C-14.74 8 -7.48 8 0 8 C0 5.36 0 2.72 0 0 Z " fill="#46A5BC" transform="translate(52,68)"/>
<path d="M0 0 C0.66 0.99 1.32 1.98 2 3 C1.21085079 4.60540659 0.41858235 6.20928016 -0.375 7.8125 C-1.03628906 9.15248047 -1.03628906 9.15248047 -1.7109375 10.51953125 C-3 13 -3 13 -5 16 C-5.66 15.67 -6.32 15.34 -7 15 C-7.66 15 -8.32 15 -9 15 C-9.66 15.66 -10.32 16.32 -11 17 C-11.99 16.67 -12.98 16.34 -14 16 C-10.38671875 11.3125 -10.38671875 11.3125 -9 10 C-8.01 10 -7.02 10 -6 10 C-5.7525 9.05125 -5.505 8.1025 -5.25 7.125 C-4 4 -4 4 -1.875 2.625 C-1.25625 2.41875 -0.6375 2.2125 0 2 C0 1.34 0 0.68 0 0 Z " fill="#BAC3C4" transform="translate(122,90)"/>
<path d="M0 0 C7.59 0 15.18 0 23 0 C23 1.98 23 3.96 23 6 C15.08 6.33 7.16 6.66 -1 7 C-1 6.34 -1 5.68 -1 5 C6.26 5 13.52 5 21 5 C21 4.01 21 3.02 21 2 C14.07 2 7.14 2 0 2 C0 1.34 0 0.68 0 0 Z " fill="#0C3F6E" transform="translate(97,82)"/>
<path d="M0 0 C1.04220703 0.30744141 1.04220703 0.30744141 2.10546875 0.62109375 C12.65742271 3.41622477 23.13445902 3.72108028 34 4 C26.13818136 8.0197146 17.56799959 7.85254045 9 6 C9 5.34 9 4.68 9 4 C7.6078125 4.061875 7.6078125 4.061875 6.1875 4.125 C3 4 3 4 0 2 C0 1.34 0 0.68 0 0 Z " fill="#98A9AD" transform="translate(53,120)"/>
<path d="M0 0 C7.92 0 15.84 0 24 0 C24 0.99 24 1.98 24 3 C16.08 3 8.16 3 0 3 C0 2.01 0 1.02 0 0 Z " fill="#BBE0E2" transform="translate(32,84)"/>
<path d="M0 0 C2.81256281 -0.02684312 5.62487241 -0.04676188 8.4375 -0.0625 C9.23994141 -0.07087891 10.04238281 -0.07925781 10.86914062 -0.08789062 C12.91295221 -0.0965143 14.95683902 -0.0522815 17 0 C17.33 0.33 17.66 0.66 18 1 C17.90968426 3.35694954 17.75311872 5.71153582 17.5625 8.0625 C17.46066406 9.35285156 17.35882813 10.64320312 17.25390625 11.97265625 C17.17011719 12.97167969 17.08632812 13.97070312 17 15 C15.35 14.67 13.7 14.34 12 14 C12 12.68 12 11.36 12 10 C12.99 9.67 13.98 9.34 15 9 C15 7.02 15 5.04 15 3 C13.68 3.33 12.36 3.66 11 4 C11 3.01 11 2.02 11 1 C10.37351562 1.09539063 9.74703125 1.19078125 9.1015625 1.2890625 C7.87566406 1.45535156 7.87566406 1.45535156 6.625 1.625 C5.40683594 1.79902344 5.40683594 1.79902344 4.1640625 1.9765625 C3.44992188 1.98429687 2.73578125 1.99203125 2 2 C1.34 1.34 0.68 0.68 0 0 Z " fill="#48EBF4" transform="translate(65,32)"/>
<path d="M0 0 C3.0625 0.1875 3.0625 0.1875 5.0625 2.1875 C5.25 4.75 5.25 4.75 5.0625 7.1875 C4.0625 8.1875 4.0625 8.1875 0.625 8.375 C-2.9375 8.1875 -2.9375 8.1875 -4.9375 6.1875 C-4.21574268 0.26908996 -4.21574268 0.26908996 0 0 Z " fill="#DDEEEC" transform="translate(90.9375,38.8125)"/>
<path d="M0 0 C0.66 0.66 1.32 1.32 2 2 C0.58653438 3.44064765 -0.83091211 4.87739015 -2.25 6.3125 C-3.43335938 7.51326172 -3.43335938 7.51326172 -4.640625 8.73828125 C-8.31823914 12.26367626 -11.88120016 14.59286821 -16.5 16.75 C-17.4384375 17.19859375 -18.376875 17.6471875 -19.34375 18.109375 C-22.23200119 19.07778863 -23.18411601 18.85316187 -26 18 C-24.87722656 17.45472656 -23.75445312 16.90945312 -22.59765625 16.34765625 C-13.68256906 11.89757423 -6.44636959 7.76870181 0 0 Z " fill="#98A7AB" transform="translate(114,105)"/>
<path d="M0 0 C0.33 0 0.66 0 1 0 C1 2.31 1 4.62 1 7 C-2.171738 8.585869 -5.63513822 8.37866445 -9.125 8.5625 C-9.87910156 8.60568359 -10.63320312 8.64886719 -11.41015625 8.69335938 C-13.27321888 8.7994832 -15.13658524 8.90025001 -17 9 C-16.67 8.34 -16.34 7.68 -16 7 C-15.01 7 -14.02 7 -13 7 C-12.67 5.68 -12.34 4.36 -12 3 C-11.01 3 -10.02 3 -9 3 C-9 3.66 -9 4.32 -9 5 C-4.10437307 3.12297673 -4.10437307 3.12297673 0 0 Z " fill="#0F629F" transform="translate(81,111)"/>
<path d="M0 0 C0.99 0.66 1.98 1.32 3 2 C3.41434251 4.32031805 3.74889902 6.65639085 4 9 C4.33 9.66 4.66 10.32 5 11 C3.68 10.67 2.36 10.34 1 10 C0.34 11.32 -0.32 12.64 -1 14 C-1.99 13.67 -2.98 13.34 -4 13 C-4 9.37 -4 5.74 -4 2 C-3.01 2 -2.02 2 -1 2 C-0.67 1.34 -0.34 0.68 0 0 Z " fill="#1DB2E4" transform="translate(68,99)"/>
<path d="M0 0 C1.22265625 2.13671875 1.22265625 2.13671875 2 4 C1.57074219 3.6390625 1.14148438 3.278125 0.69921875 2.90625 C-7.38534745 -2.74509725 -16.58713463 -1.43090432 -26 -1 C-18.32528087 -6.98531555 -7.71980508 -5.83150744 0 0 Z " fill="#135D7C" transform="translate(89,55)"/>
<path d="M0 0 C0.66 0 1.32 0 2 0 C5.07692308 5.41538462 5.07692308 5.41538462 4.6875 8.375 C4.460625 8.91125 4.23375 9.4475 4 10 C1.625 10.625 1.625 10.625 -1 11 C-3 9 -3 9 -3.3125 6.625 C-2.94561394 3.54315707 -2.13570963 2.21785231 0 0 Z " fill="#DEE9E7" transform="translate(74,99)"/>
<path d="M0 0 C3 1 3 1 5 4 C4.625 6.6875 4.625 6.6875 4 9 C1.625 9.625 1.625 9.625 -1 10 C-3 8 -3 8 -3.3125 5.5625 C-2.95209822 2.60720543 -2.28773145 1.81112073 0 0 Z " fill="#CFDAD9" transform="translate(89,97)"/>
<path d="M0 0 C6.6 0 13.2 0 20 0 C19.67 0.99 19.34 1.98 19 3 C12.73 3 6.46 3 0 3 C0 2.01 0 1.02 0 0 Z " fill="#4FC0D1" transform="translate(97,89)"/>
<path d="M0 0 C3.26008643 3.16952847 6.22237877 6.39937989 9 10 C8.67 10.66 8.34 11.32 8 12 C5.67843403 12.40729228 3.3431213 12.74438677 1 13 C-1.42857143 4.57142857 -1.42857143 4.57142857 0 0 Z " fill="#CBD2D2" transform="translate(35,99)"/>
<path d="M0 0 C0 3 0 3 -1.6875 5.0625 C-4.07393025 7.06194156 -6.10362347 7.93291391 -9 9 C-9.66 9.66 -10.32 10.32 -11 11 C-11.99 10.67 -12.98 10.34 -14 10 C-13.91015625 7.67578125 -13.91015625 7.67578125 -13 5 C-10.05859375 3.41796875 -10.05859375 3.41796875 -6.4375 2.1875 C-5.23996094 1.76855469 -4.04242188 1.34960938 -2.80859375 0.91796875 C-1.88175781 0.61503906 -0.95492187 0.31210938 0 0 Z " fill="#B4BCBE" transform="translate(98,114)"/>
<path d="M0 0 C1.9375 0.375 1.9375 0.375 4 1 C5.35439668 3.70879335 5.06501451 6.00933268 5 9 C2.625 9.625 2.625 9.625 0 10 C-2 8 -2 8 -2.25 5.5625 C-2 3 -2 3 0 0 Z " fill="#E2F1EE" transform="translate(58,97)"/>
<path d="M0 0 C2.1875 1 2.1875 1 3.1875 3 C1.5375 3 -0.1125 3 -1.8125 3 C-1.8125 3.66 -1.8125 4.32 -1.8125 5 C-2.4725 5 -3.1325 5 -3.8125 5 C-3.8125 5.99 -3.8125 6.98 -3.8125 8 C-4.59496094 8.18175781 -5.37742187 8.36351563 -6.18359375 8.55078125 C-7.19550781 8.80214844 -8.20742187 9.05351563 -9.25 9.3125 C-10.25933594 9.55613281 -11.26867187 9.79976562 -12.30859375 10.05078125 C-13.13488281 10.36402344 -13.96117188 10.67726563 -14.8125 11 C-15.1425 11.99 -15.4725 12.98 -15.8125 14 C-15.8125 12.35 -15.8125 10.7 -15.8125 9 C-14.265625 8.443125 -14.265625 8.443125 -12.6875 7.875 C-9.65591835 6.61591569 -7.86773867 5.19141309 -5.6875 2.75 C-2.8125 0 -2.8125 0 0 0 Z " fill="#F8EC43" transform="translate(78.8125,62)"/>
<path d="M0 0 C0.33 0.99 0.66 1.98 1 3 C-0.32 3.33 -1.64 3.66 -3 4 C-3 5.98 -3 7.96 -3 10 C-0.36 10.66 2.28 11.32 5 12 C3.875 13.5 3.875 13.5 2 15 C-1.0625 15.3125 -1.0625 15.3125 -4 15 C-4.66 14.34 -5.32 13.68 -6 13 C-6 12.01 -6 11.02 -6 10 C-6.061875 9.01 -6.12375 8.02 -6.1875 7 C-6 4 -6 4 -4.6875 2.1875 C-3 1 -3 1 0 0 Z " fill="#715734" transform="translate(76,70)"/>
<path d="M0 0 C0.33 1.32 0.66 2.64 1 4 C0.34 4 -0.32 4 -1 4 C-1 5.32 -1 6.64 -1 8 C-1.66 7.67 -2.32 7.34 -3 7 C-2.67 6.01 -2.34 5.02 -2 4 C-2.99 4 -3.98 4 -5 4 C-5 5.65 -5 7.3 -5 9 C-5.99 8.67 -6.98 8.34 -8 8 C-7.67 6.68 -7.34 5.36 -7 4 C-7.66 4 -8.32 4 -9 4 C-9.33 5.32 -9.66 6.64 -10 8 C-10.66 7.67 -11.32 7.34 -12 7 C-12 6.01 -12 5.02 -12 4 C-12.66 3.34 -13.32 2.68 -14 2 C-13.07316406 1.93941406 -12.14632812 1.87882812 -11.19140625 1.81640625 C-9.39509766 1.69072266 -9.39509766 1.69072266 -7.5625 1.5625 C-5.77005859 1.44068359 -5.77005859 1.44068359 -3.94140625 1.31640625 C-1.11429756 1.32343886 -1.11429756 1.32343886 0 0 Z " fill="#10456E" transform="translate(114,61)"/>
<path d="M0 0 C2.5 1.375 2.5 1.375 5 3 C5 3.66 5 4.32 5 5 C5.66 5 6.32 5 7 5 C7.33 5.66 7.66 6.32 8 7 C8.99 7.66 9.98 8.32 11 9 C2.93103448 9.62068966 2.93103448 9.62068966 -0.625 7.25 C-2 5 -2 5 -1.8125 2.8125 C-1 1 -1 1 0 0 Z " fill="#155C7E" transform="translate(68,86)"/>
<path d="M0 0 C0.66 0 1.32 0 2 0 C2 1.32 2 2.64 2 4 C4.78823655 5.0326802 5.8677274 5.04509293 8.75 4.0625 C9.4925 3.711875 10.235 3.36125 11 3 C10.835 4.093125 10.67 5.18625 10.5 6.3125 C9.93281816 9.87525873 9.93281816 9.87525873 10 13 C7.69 13.66 5.38 14.32 3 15 C3.33 13.68 3.66 12.36 4 11 C5.32 11 6.64 11 8 11 C5.64722731 8.27573689 3.37503669 7.1858237 0 6 C0 4.02 0 2.04 0 0 Z " fill="#81AE76" transform="translate(74,55)"/>
<path d="M0 0 C1.32 0.66 2.64 1.32 4 2 C4 2.66 4 3.32 4 4 C6.31 4.66 8.62 5.32 11 6 C11 7.32 11 8.64 11 10 C10.01 10 9.02 10 8 10 C8 9.34 8 8.68 8 8 C5.92446352 7.4465236 4.15634036 7 2 7 C1.67 7.66 1.34 8.32 1 9 C0.34 9 -0.32 9 -1 9 C-0.67 6.03 -0.34 3.06 0 0 Z " fill="#4A7B6E" transform="translate(65,81)"/>
<path d="M0 0 C0.66 0 1.32 0 2 0 C1.979375 0.763125 1.95875 1.52625 1.9375 2.3125 C1.87057159 5.10185786 1.87057159 5.10185786 3 8 C-0.3 8 -3.6 8 -7 8 C-6.67 5.69 -6.34 3.38 -6 1 C-5.67 1.66 -5.34 2.32 -5 3 C-3.68 3 -2.36 3 -1 3 C-0.67 2.01 -0.34 1.02 0 0 Z " fill="#2C95C3" transform="translate(105,65)"/>
<path d="M0 0 C4.53124842 0.36542326 7.70195197 1.55542715 11.875 3.3125 C10.875 5.3125 10.875 5.3125 7.5 6.5625 C6.30375 6.81 5.1075 7.0575 3.875 7.3125 C2.885 6.6525 1.895 5.9925 0.875 5.3125 C1.205 3.9925 1.535 2.6725 1.875 1.3125 C-0.435 1.6425 -2.745 1.9725 -5.125 2.3125 C-3.125 0.3125 -3.125 0.3125 0 0 Z " fill="#318E9F" transform="translate(74.125,53.6875)"/>
<path d="M0 0 C0.66 0.99 1.32 1.98 2 3 C4.05925139 3.72382467 4.05925139 3.72382467 6 4 C6 4.99 6 5.98 6 7 C7.32 7 8.64 7 10 7 C10 7.66 10 8.32 10 9 C8.02 9.33 6.04 9.66 4 10 C4 9.34 4 8.68 4 8 C0.72226496 8.75150023 0.72226496 8.75150023 -1 12 C-1.08159574 7.83861737 -0.98248524 4.0527516 0 0 Z " fill="#1281BC" transform="translate(68,106)"/>
<path d="M0 0 C4.21073233 1.50383297 5.83237117 4.20664956 8 8 C8 8.99 8 9.98 8 11 C5.83125748 10.49396008 4.00032373 10.00016187 2 9 C1.6278958 7.67696283 1.29369827 6.34262065 1 5 C-0.44754255 3.55245745 -2.03962913 3.44266439 -4 3 C-2.68 2.01 -1.36 1.02 0 0 Z " fill="#11A1D7" transform="translate(107,45)"/>
<path d="M0 0 C1.65 0 3.3 0 5 0 C5 0.99 5 1.98 5 3 C6.32 2.67 7.64 2.34 9 2 C9.33 3.98 9.66 5.96 10 8 C9.01 8 8.02 8 7 8 C6.34 7.01 5.68 6.02 5 5 C5 5.99 5 6.98 5 8 C4.01 8 3.02 8 2 8 C0.74335022 5.09399739 0 3.20395416 0 0 Z " fill="#7FEAF0" transform="translate(71,33)"/>
<path d="M0 0 C2.97 0 5.94 0 9 0 C8.09066991 1.27609323 7.17217147 2.54565553 6.25 3.8125 C5.73953125 4.52019531 5.2290625 5.22789063 4.703125 5.95703125 C2.97517642 8.02977691 1.21473524 9.47375854 -1 11 C-1.33 9.68 -1.66 8.36 -2 7 C-0.35 6.67 1.3 6.34 3 6 C3 5.34 3 4.68 3 4 C2.34 4 1.68 4 1 4 C0.67 2.68 0.34 1.36 0 0 Z " fill="#42C9E6" transform="translate(44,94)"/>
<path d="M0 0 C0.66 0 1.32 0 2 0 C0.4404735 3.82792868 -1.83631836 6.36359864 -5 9 C-7.3125 8.8125 -7.3125 8.8125 -9 8 C-8.01 6.35 -7.02 4.7 -6 3 C-6.66 2.67 -7.32 2.34 -8 2 C-6.865625 1.855625 -5.73125 1.71125 -4.5625 1.5625 C-1.19222799 1.38828522 -1.19222799 1.38828522 0 0 Z " fill="#0A3459" transform="translate(93,82)"/>
<path d="M0 0 C0.598125 0.639375 1.19625 1.27875 1.8125 1.9375 C3.90810337 4.20310389 3.90810337 4.20310389 7 5 C6.67 6.32 6.34 7.64 6 9 C3.07120629 8.37240135 0.63904371 7.41377341 -2 6 C-1.125 1.125 -1.125 1.125 0 0 Z " fill="#256A7D" transform="translate(85,59)"/>
<path d="M0 0 C6.04821149 -0.46646337 9.86324856 0.9028915 15.1875 3.6875 C15.88552734 4.02716797 16.58355469 4.36683594 17.30273438 4.71679688 C21.54949529 6.87856385 24.2668774 8.96740826 27 13 C23.57221828 11.75028792 20.90510332 10.31517555 18 8.125 C12.47317922 4.30952982 6.43859159 2.6917474 0 1 C0 0.67 0 0.34 0 0 Z " fill="#226988" transform="translate(81,29)"/>
<path d="M0 0 C1.4540625 0.0309375 1.4540625 0.0309375 2.9375 0.0625 C2.9375 1.0525 2.9375 2.0425 2.9375 3.0625 C1.6175 3.0625 0.2975 3.0625 -1.0625 3.0625 C-1.3925 4.7125 -1.7225 6.3625 -2.0625 8.0625 C5.1975 8.0625 12.4575 8.0625 19.9375 8.0625 C19.9375 8.3925 19.9375 8.7225 19.9375 9.0625 C12.3475 9.0625 4.7575 9.0625 -3.0625 9.0625 C-3.3925 6.4225 -3.7225 3.7825 -4.0625 1.0625 C-3.0625 0.0625 -3.0625 0.0625 0 0 Z " fill="#3EB3D4" transform="translate(100.0625,64.9375)"/>
<path d="M0 0 C-1.65863505 4.32504836 -4.871041 7.09418825 -8.125 10.25 C-8.68832031 10.80429688 -9.25164063 11.35859375 -9.83203125 11.9296875 C-11.21686028 13.29104485 -12.60783204 14.64614859 -14 16 C-14.66 15.67 -15.32 15.34 -16 15 C-13.7169864 12.49197571 -11.4222145 9.99501771 -9.125 7.5 C-8.47402344 6.78457031 -7.82304688 6.06914063 -7.15234375 5.33203125 C-6.52714844 4.65527344 -5.90195312 3.97851562 -5.2578125 3.28125 C-4.6817627 2.65283203 -4.10571289 2.02441406 -3.51220703 1.37695312 C-2 0 -2 0 0 0 Z " fill="#B5DDE2" transform="translate(59,90)"/>
<path d="M0 0 C0.66 0.33 1.32 0.66 2 1 C1.67 1.66 1.34 2.32 1 3 C1.309375 3.556875 1.61875 4.11375 1.9375 4.6875 C3.3861914 7.84053422 3.13174333 10.57467347 3 14 C2.01 13.67 1.02 13.34 0 13 C-0.625 11.0625 -0.625 11.0625 -1 9 C-1.33 8.34 -1.66 7.68 -2 7 C-2.039992 5.00039988 -2.04346799 2.99952758 -2 1 C-1.34 0.67 -0.68 0.34 0 0 Z " fill="#14799E" transform="translate(93,57)"/>
<path d="M0 0 C4.2742558 1.5830577 6.26531794 4.50568404 9 8 C7.68 8.33 6.36 8.66 5 9 C4.67 8.01 4.34 7.02 4 6 C3.01 6.33 2.02 6.66 1 7 C-0.0625 4.625 -0.0625 4.625 -1 2 C-0.67 1.34 -0.34 0.68 0 0 Z " fill="#196094" transform="translate(91,93)"/>
<path d="M0 0 C3.84223567 1.50944973 5.51995823 3.76843042 8 7 C8.825 7.825 9.65 8.65 10.5 9.5 C12.87675345 11.87675345 14.94892056 14.34119332 17 17 C14.10147635 15.68692628 12.01722783 14.27315362 9.765625 12.03125 C8.90517578 11.17466797 8.90517578 11.17466797 8.02734375 10.30078125 C7.44082031 9.70652344 6.85429688 9.11226562 6.25 8.5 C5.64800781 7.90574219 5.04601562 7.31148438 4.42578125 6.69921875 C3.85730469 6.12816406 3.28882812 5.55710937 2.703125 4.96875 C2.18395508 4.44732422 1.66478516 3.92589844 1.12988281 3.38867188 C0 2 0 2 0 0 Z " fill="#AFCED6" transform="translate(90,89)"/>
<path d="M0 0 C1.65 1.65 3.3 3.3 5 5 C1.86501708 6.85776765 -0.37471432 7.20140476 -4 7 C-3.67 5.02 -3.34 3.04 -3 1 C-2.01 0.67 -1.02 0.34 0 0 Z " fill="#58E3EC" transform="translate(53,54)"/>
<path d="M0 0 C8.25 0.33 16.5 0.66 25 1 C25 1.33 25 1.66 25 2 C17.41 2 9.82 2 2 2 C2 3.32 2 4.64 2 6 C0.68 5.34 -0.64 4.68 -2 4 C-1.34 2.68 -0.68 1.36 0 0 Z " fill="#40A0BC" transform="translate(93,85)"/>
<path d="M0 0 C1.15879611 3.68856227 0.58152995 6.10895992 -0.453125 9.828125 C-1.29970933 13.19027419 -1.63095145 16.55554683 -2 20 C-2.66 20 -3.32 20 -4 20 C-4.4946164 12.45709983 -2.90617391 6.941085 0 0 Z " fill="#39B7C9" transform="translate(35,53)"/>
<path d="M0 0 C0 1.65 0 3.3 0 5 C-1.65614657 5.38218767 -3.32457024 5.71395102 -5 6 C-6 5 -6 5 -6.0625 2.4375 C-6.041875 1.633125 -6.02125 0.82875 -6 0 C-3.50907189 -1.24546405 -2.58919267 -0.7767578 0 0 Z " fill="#EFF27E" transform="translate(47,58)"/>
<path d="M0 0 C0.33 0.66 0.66 1.32 1 2 C8.26 2 15.52 2 23 2 C23.33 1.34 23.66 0.68 24 0 C24.33 1.65 24.66 3.3 25 5 C24.67 4.34 24.34 3.68 24 3 C16.41 3 8.82 3 1 3 C1 3.66 1 4.32 1 5 C0.34 5 -0.32 5 -1 5 C-0.67 3.35 -0.34 1.7 0 0 Z " fill="#438EA7" transform="translate(96,79)"/>
<path d="M0 0 C-1.07412508 3.22237524 -1.63226604 3.74191327 -4.1875 5.75 C-7.47474125 8.44202062 -10.10862464 11.35119064 -12.73828125 14.6796875 C-13.36283203 15.33324219 -13.36283203 15.33324219 -14 16 C-14.66 16 -15.32 16 -16 16 C-14.33536962 11.71357676 -11.20924163 8.91382783 -8 5.75 C-7.4534375 5.19570313 -6.906875 4.64140625 -6.34375 4.0703125 C-2.2533867 0 -2.2533867 0 0 0 Z " fill="#B3E3E7" transform="translate(107,42)"/>
<path d="M0 0 C2.3125 0.8125 2.3125 0.8125 4 2 C3.75 4.375 3.75 4.375 3 7 C0.9375 8.3125 0.9375 8.3125 -1 9 C-1 8.34 -1 7.68 -1 7 C-1.66 6.67 -2.32 6.34 -3 6 C-3.66 5.01 -4.32 4.02 -5 3 C-2.75 1.375 -2.75 1.375 0 0 Z M0 2 C-0.99 2.495 -0.99 2.495 -2 3 C-1.67 3.66 -1.34 4.32 -1 5 C-0.34 4.67 0.32 4.34 1 4 C0.67 3.34 0.34 2.68 0 2 Z " fill="#2B91BB" transform="translate(88,90)"/>
<path d="M0 0 C0.66 0.33 1.32 0.66 2 1 C2 1.66 2 2.32 2 3 C3.32 3.66 4.64 4.32 6 5 C3.56644121 6.53224072 2.34278436 7.03344238 -0.5625 6.75 C-3 6 -3 6 -6 4 C-4.68 4 -3.36 4 -2 4 C-1.34 2.68 -0.68 1.36 0 0 Z " fill="#22CDE7" transform="translate(87,47)"/>
<path d="M0 0 C1.32 0 2.64 0 4 0 C4 0.66 4 1.32 4 2 C4.66 2 5.32 2 6 2 C6 2.66 6 3.32 6 4 C6.99 4.33 7.98 4.66 9 5 C2.565 5.495 2.565 5.495 -4 6 C-3.67 5.34 -3.34 4.68 -3 4 C-2.01 4 -1.02 4 0 4 C0 2.68 0 1.36 0 0 Z " fill="#116BA7" transform="translate(68,114)"/>
<path d="M0 0 C1.65 0.33 3.3 0.66 5 1 C5 1.99 5 2.98 5 4 C5.66 4.33 6.32 4.66 7 5 C6.01 5 5.02 5 4 5 C4 6.65 4 8.3 4 10 C3.67 9.01 3.34 8.02 3 7 C2.01 7 1.02 7 0 7 C0 6.34 0 5.68 0 5 C-0.99 4.67 -1.98 4.34 -3 4 C-2.34 4 -1.68 4 -1 4 C-0.67 3.34 -0.34 2.68 0 2 C0 2.66 0 3.32 0 4 C0.99 4 1.98 4 3 4 C3 3.01 3 2.02 3 1 C2.01 0.67 1.02 0.34 0 0 Z " fill="#3ED2E2" transform="translate(73,37)"/>
<path d="M0 0 C2.5 1.8125 2.5 1.8125 5 4 C5 4.99 5 5.98 5 7 C5.99 7.33 6.98 7.66 8 8 C8.33 8.99 8.66 9.98 9 11 C6.08482708 9.92598892 4.22189824 9.22189824 2 7 C1.835 6.154375 1.67 5.30875 1.5 4.4375 C1.335 3.633125 1.17 2.82875 1 2 C0.34 1.67 -0.32 1.34 -1 1 C-0.67 0.67 -0.34 0.34 0 0 Z " fill="#22789B" transform="translate(59,83)"/>
<path d="M0 0 C1.32 0.66 2.64 1.32 4 2 C4 3.32 4 4.64 4 6 C2.35 6.33 0.7 6.66 -1 7 C-1.33 5.35 -1.66 3.7 -2 2 C-1.34 2 -0.68 2 0 2 C0 1.34 0 0.68 0 0 Z " fill="#6AEEF4" transform="translate(48,50)"/>
<path d="M0 0 C-0.75 1.9375 -0.75 1.9375 -2 4 C-4.125 4.75 -4.125 4.75 -6 5 C-6.99 3.68 -7.98 2.36 -9 1 C-5.57367167 -0.61798838 -3.61944899 -1.34053666 0 0 Z " fill="#465248" transform="translate(87,85)"/>
<path d="M0 0 C-0.61875 0.0825 -1.2375 0.165 -1.875 0.25 C-4.67505419 1.23825442 -4.74113932 2.40359985 -6 5 C-8.125 6.25 -8.125 6.25 -10 7 C-9.67 6.01 -9.34 5.02 -9 4 C-9.99 5.485 -9.99 5.485 -11 7 C-11.66 6.67 -12.32 6.34 -13 6 C-8.3374496 1.21475091 -6.68645054 -0.14535762 0 0 Z " fill="#E1ED98" transform="translate(77,61)"/>
<path d="M0 0 C1.43905299 2.87810599 1.55482518 5.82812939 2 9 C2.33 9.99 2.66 10.98 3 12 C-1.75 13 -1.75 13 -4 13 C-3.690625 12.505 -3.38125 12.01 -3.0625 11.5 C-2.04812842 9.11324335 -1.72134804 7.3625542 -1.4375 4.8125 C-1 1 -1 1 0 0 Z " fill="#6CA181" transform="translate(63,69)"/>
<path d="M0 0 C-0.33 0.99 -0.66 1.98 -1 3 C-5.62 3.33 -10.24 3.66 -15 4 C-9.77467259 0.08100444 -6.40544057 -0.14896373 0 0 Z " fill="#196D85" transform="translate(78,50)"/>
<path d="M0 0 C1.423125 0.2784375 1.423125 0.2784375 2.875 0.5625 C5.89868793 1.28686632 5.89868793 1.28686632 8 0 C7.6875 2.375 7.6875 2.375 7 5 C6.01 5.66 5.02 6.32 4 7 C1.49962266 4.82575883 0.56371414 3.26954202 0 0 Z " fill="#72F2F6" transform="translate(51,47)"/>
<path d="M0 0 C0.33 0 0.66 0 1 0 C1.66 2.31 2.32 4.62 3 7 C1.1875 7.6875 1.1875 7.6875 -1 8 C-2.75 6.5625 -2.75 6.5625 -4 5 C-3.67 4.01 -3.34 3.02 -3 2 C-2.01 2 -1.02 2 0 2 C0 1.34 0 0.68 0 0 Z " fill="#E8B017" transform="translate(69,75)"/>
<path d="M0 0 C1.32 0 2.64 0 4 0 C2.50958227 3.79379058 0.30937488 5.68343758 -3 8 C-3.66 8 -4.32 8 -5 8 C-4.67 6.68 -4.34 5.36 -4 4 C-3.01 4 -2.02 4 -1 4 C-0.67 2.68 -0.34 1.36 0 0 Z " fill="#F1F9F5" transform="translate(104,53)"/>
<path d="M0 0 C0.66 0 1.32 0 2 0 C2.99 1.98 3.98 3.96 5 6 C3.824375 6.4640625 3.824375 6.4640625 2.625 6.9375 C0.07669872 7.92875038 0.07669872 7.92875038 -2 9 C-1.34 6.03 -0.68 3.06 0 0 Z " fill="#1467A1" transform="translate(83,101)"/>
<path d="M0 0 C1.98 0 3.96 0 6 0 C6 1.65 6 3.3 6 5 C4.35 5.33 2.7 5.66 1 6 C0.67 4.02 0.34 2.04 0 0 Z " fill="#48A8B2" transform="translate(68,56)"/>
<path d="M0 0 C0.99 0.66 1.98 1.32 3 2 C2.67 3.32 2.34 4.64 2 6 C-0.31 5.67 -2.62 5.34 -5 5 C-4.34 4.67 -3.68 4.34 -3 4 C-2.67 3.01 -2.34 2.02 -2 1 C-1.34 0.67 -0.68 0.34 0 0 Z " fill="#3CE4EF" transform="translate(79,45)"/>
<path d="M0 0 C0.33 0.99 0.66 1.98 1 3 C0.34 3.66 -0.32 4.32 -1 5 C-4.29714793 4.67028521 -5.6226839 4.3773161 -8 2 C-4.91190305 0.23537317 -3.76687864 0 0 0 Z " fill="#17AADF" transform="translate(57,109)"/>
<path d="M0 0 C0.33 0 0.66 0 1 0 C0.49202991 4.3177458 -0.19682779 8.03302114 -2 12 C-2.33 11.34 -2.66 10.68 -3 10 C-2.67 9.01 -2.34 8.02 -2 7 C-3.98 7.33 -5.96 7.66 -8 8 C-6 5 -6 5 -3.375 4.3125 C-2.59125 4.209375 -1.8075 4.10625 -1 4 C-0.67 2.68 -0.34 1.36 0 0 Z " fill="#2F8D9E" transform="translate(47,59)"/>
<path d="M0 0 C0 3.96130371 -1.34877125 4.82914401 -4 7.6875 C-4.7425 8.49574219 -5.485 9.30398437 -6.25 10.13671875 C-6.8275 10.75160156 -7.405 11.36648437 -8 12 C-8.99 11.67 -9.98 11.34 -11 11 C-7.33333333 7.33333333 -3.66666667 3.66666667 0 0 Z " fill="#328CAA" transform="translate(104,45)"/>
<path d="M0 0 C2 2 2 2 2.125 5.125 C2.08375 6.07375 2.0425 7.0225 2 8 C0.35 8.33 -1.3 8.66 -3 9 C-2.01 6.03 -1.02 3.06 0 0 Z " fill="#D5DDDC" transform="translate(61,98)"/>
<path d="M0 0 C0.33 0.99 0.66 1.98 1 3 C0.01 4.485 0.01 4.485 -1 6 C-1.38499891 7.65549531 -1.72793135 9.3222433 -2 11 C-2.99 10.67 -3.98 10.34 -5 10 C-3.14285714 2.42857143 -3.14285714 2.42857143 0 0 Z " fill="#2BC2E8" transform="translate(58,94)"/>
<path d="M0 0 C0.66 0 1.32 0 2 0 C2 2.64 2 5.28 2 8 C1.01 8 0.02 8 -1 8 C-1 7.01 -1 6.02 -1 5 C-1.66 4.67 -2.32 4.34 -3 4 C-1.625 2 -1.625 2 0 0 Z " fill="#AAF2F5" transform="translate(58,37)"/>
<path d="M0 0 C2.64 0.33 5.28 0.66 8 1 C8 2.98 8 4.96 8 7 C6.02 6.34 4.04 5.68 2 5 C2 4.01 2 3.02 2 2 C1.34 1.34 0.68 0.68 0 0 Z " fill="#2ADAF0" transform="translate(87,33)"/>
<path d="M0 0 C0.99 0.33 1.98 0.66 3 1 C3 2.32 3 3.64 3 5 C1.35 5.33 -0.3 5.66 -2 6 C-2.33 4.68 -2.66 3.36 -3 2 C-2.01 1.34 -1.02 0.68 0 0 Z " fill="#2095C5" transform="translate(79,97)"/>
<path d="M0 0 C6.75 -0.125 6.75 -0.125 9 1 C9 1.66 9 2.32 9 3 C7.68 3 6.36 3 5 3 C5 3.66 5 4.32 5 5 C4.34 5 3.68 5 3 5 C3 4.01 3 3.02 3 2 C2.01 1.67 1.02 1.34 0 1 C0 0.67 0 0.34 0 0 Z " fill="#5987A3" transform="translate(100,93)"/>
<path d="M0 0 C0.99 0.33 1.98 0.66 3 1 C3.20086443 4.71599191 3.1519437 5.77208445 1 9 C0.34 9 -0.32 9 -1 9 C-0.67 6.03 -0.34 3.06 0 0 Z " fill="#638A6D" transform="translate(65,81)"/>
<path d="M0 0 C1.65 0 3.3 0 5 0 C4.38125 0.061875 3.7625 0.12375 3.125 0.1875 C2.073125 0.5896875 2.073125 0.5896875 1 1 C0.71125 1.78375 0.4225 2.5675 0.125 3.375 C-1.41322558 6.96419303 -3.48972962 7.55010571 -7 9 C-7 7.68 -7 6.36 -7 5 C-5.35 5 -3.7 5 -2 5 C-2 4.01 -2 3.02 -2 2 C-1.34 2 -0.68 2 0 2 C0 1.34 0 0.68 0 0 Z " fill="#EBC71F" transform="translate(77,65)"/>
<path d="M0 0 C2.86724686 0.57344937 3.8614515 0.8614515 6 3 C5.67 3.99 5.34 4.98 5 6 C3.35 5.67 1.7 5.34 0 5 C0 3.35 0 1.7 0 0 Z " fill="#3E9AA6" transform="translate(57,67)"/>
<path d="M0 0 C0.66 0 1.32 0 2 0 C2 0.99 2 1.98 2 3 C5.0745356 2.2236068 5.0745356 2.2236068 7 0 C6.67 1.65 6.34 3.3 6 5 C4.02 5.66 2.04 6.32 0 7 C0 4.69 0 2.38 0 0 Z " fill="#51D0DE" transform="translate(55,42)"/>
<path d="M0 0 C0.56203125 0.36867188 1.1240625 0.73734375 1.703125 1.1171875 C0.76339844 1.42462891 0.76339844 1.42462891 -0.1953125 1.73828125 C-1.01257812 2.00769531 -1.82984375 2.27710938 -2.671875 2.5546875 C-3.48398437 2.82152344 -4.29609375 3.08835938 -5.1328125 3.36328125 C-7.30719299 4.06898479 -7.30719299 4.06898479 -9.296875 5.1171875 C-9.956875 4.4571875 -10.616875 3.7971875 -11.296875 3.1171875 C-9.88995893 2.38967962 -8.47081478 1.68578397 -7.046875 0.9921875 C-6.25796875 0.59773438 -5.4690625 0.20328125 -4.65625 -0.203125 C-2.296875 -0.8828125 -2.296875 -0.8828125 0 0 Z " fill="#3E8497" transform="translate(61.296875,30.8828125)"/>
<path d="M0 0 C-4.80146632 2.4505409 -8.53426876 3.35646073 -14 3 C-14.66 2.34 -15.32 1.68 -16 1 C-10.61509359 0.08342019 -5.45769811 -0.11138159 0 0 Z " fill="#8FA0A5" transform="translate(87,124)"/>
<path d="M0 0 C1.67542976 0.28604898 3.34385343 0.61781233 5 1 C3.0373772 3.04795423 1.5722693 3.94976638 -1.26953125 4.19921875 C-3.51954383 4.18858877 -5.75385562 4.12958525 -8 4 C-8 3.67 -8 3.34 -8 3 C-6.865625 2.690625 -5.73125 2.38125 -4.5625 2.0625 C-1.21224901 1.37075469 -1.21224901 1.37075469 0 0 Z " fill="#092446" transform="translate(81,82)"/>
<path d="M0 0 C0.33 0.66 0.66 1.32 1 2 C1.66 2 2.32 2 3 2 C3.33 3.32 3.66 4.64 4 6 C2.35 6.33 0.7 6.66 -1 7 C-0.67 4.69 -0.34 2.38 0 0 Z " fill="#1198D0" transform="translate(99,66)"/>
<path d="M0 0 C1.32 0.66 2.64 1.32 4 2 C3.25 4.4375 3.25 4.4375 2 7 C-0.125 7.8125 -0.125 7.8125 -2 8 C-1.67 7.4225 -1.34 6.845 -1 6.25 C0.27075898 3.80116138 0.27075898 3.80116138 0 0 Z " fill="#8DECF1" transform="translate(37,54)"/>
<path d="M0 0 C4.00972202 3.67557852 6.45335415 7.18966896 9 12 C5.5912072 10.6015209 4.12606165 9.14993067 2.25 6 C1.82203125 5.29875 1.3940625 4.5975 0.953125 3.875 C0 2 0 2 0 0 Z " fill="#C6D2D3" transform="translate(112,38)"/>
<path d="M0 0 C0.66 0.66 1.32 1.32 2 2 C1.625 4.625 1.625 4.625 1 7 C-0.32 6.01 -1.64 5.02 -3 4 C-2.67 3.01 -2.34 2.02 -2 1 C-1.34 0.67 -0.68 0.34 0 0 Z " fill="#1F5C74" transform="translate(63,80)"/>
<path d="M0 0 C2 2 2 2 2 5 C2.66 5 3.32 5 4 5 C4.66 6.65 5.32 8.3 6 10 C2.19118361 8.55527654 0.70257114 6.67396929 -1 3 C-0.67 2.01 -0.34 1.02 0 0 Z " fill="#186583" transform="translate(56,80)"/>
<path d="M0 0 C0.33 0 0.66 0 1 0 C3.29612756 9.41002278 3.29612756 9.41002278 3 14 C2.34 14 1.68 14 1 14 C0.06380187 10.84493858 -0.1057123 8.03413498 -0.0625 4.75 C-0.05347656 3.85796875 -0.04445312 2.9659375 -0.03515625 2.046875 C-0.02355469 1.37140625 -0.01195312 0.6959375 0 0 Z " fill="#0F4D68" transform="translate(53,69)"/>
<path d="M0 0 C2.475 0.495 2.475 0.495 5 1 C5 3.31 5 5.62 5 8 C2.27573689 5.64722731 1.1858237 3.37503669 0 0 Z " fill="#136186" transform="translate(91,70)"/>
<path d="M0 0 C0.66 0.33 1.32 0.66 2 1 C0.02 3.31 -1.96 5.62 -4 8 C-4.99 7.67 -5.98 7.34 -7 7 C-4.78071806 4.09197539 -3.07030857 2.04687238 0 0 Z " fill="#BEC6C7" transform="translate(104,110)"/>
<path d="M0 0 C0.66 0 1.32 0 2 0 C2 0.99 2 1.98 2 3 C3.32 3 4.64 3 6 3 C6 3.66 6 4.32 6 5 C4.02 5.33 2.04 5.66 0 6 C0 4.02 0 2.04 0 0 Z " fill="#4290B2" transform="translate(72,110)"/>
<path d="M0 0 C0.66 0.33 1.32 0.66 2 1 C2 2.32 2 3.64 2 5 C0.02 5.33 -1.96 5.66 -4 6 C-4.33 5.34 -4.66 4.68 -5 4 C-4.360625 3.71125 -3.72125 3.4225 -3.0625 3.125 C-0.84793921 2.17176549 -0.84793921 2.17176549 0 0 Z " fill="#10355D" transform="translate(94,103)"/>
<path d="M0 0 C0.66 0.99 1.32 1.98 2 3 C2.99 3 3.98 3 5 3 C4.67 5.64 4.34 8.28 4 11 C3.67 11 3.34 11 3 11 C2.7525 10.05125 2.505 9.1025 2.25 8.125 C1.3142923 4.91306809 1.3142923 4.91306809 -1.125 3.625 C-1.74375 3.41875 -2.3625 3.2125 -3 3 C-2.01 3 -1.02 3 0 3 C0 2.01 0 1.02 0 0 Z " fill="#37BAD0" transform="translate(45,53)"/>
<path d="M0 0 C0.66 0.33 1.32 0.66 2 1 C2 2.65 2 4.3 2 6 C0.35 5.67 -1.3 5.34 -3 5 C-3 3.68 -3 2.36 -3 1 C-2.01 0.67 -1.02 0.34 0 0 Z " fill="#55E7F0" transform="translate(80,41)"/>
<path d="M0 0 C0.66 0.66 1.32 1.32 2 2 C-1.465 4.97 -1.465 4.97 -5 8 C-5 5 -5 5 -2.5 2.3125 C-1.675 1.549375 -0.85 0.78625 0 0 Z " fill="#A4B3B6" transform="translate(114,105)"/>
<path d="M0 0 C1.32 0 2.64 0 4 0 C3.8125 1.875 3.8125 1.875 3 4 C0.4375 5.25 0.4375 5.25 -2 6 C-1.34 4.02 -0.68 2.04 0 0 Z " fill="#165183" transform="translate(105,96)"/>
<path d="M0 0 C0.99 0 1.98 0 3 0 C2.979375 0.78375 2.95875 1.5675 2.9375 2.375 C2.81315937 4.98114961 2.81315937 4.98114961 4 7 C2.68 7 1.36 7 0 7 C0 4.69 0 2.38 0 0 Z " fill="#2EA0C7" transform="translate(109,65)"/>
<path d="M0 0 C2.875 0.1875 2.875 0.1875 6 1 C7.4375 3.375 7.4375 3.375 8 6 C7.67 6.99 7.34 7.98 7 9 C6.6596875 8.1028125 6.6596875 8.1028125 6.3125 7.1875 C4.66692986 4.4448831 2.72964203 3.58031907 0 2 C0 1.34 0 0.68 0 0 Z " fill="#2183B5" transform="translate(110,54)"/>
<path d="M0 0 C0.99 0.33 1.98 0.66 3 1 C0.36 2.98 -2.28 4.96 -5 7 C-5 6.01 -5 5.02 -5 4 C-2.6875 1.75 -2.6875 1.75 0 0 Z " fill="#2E7C92" transform="translate(49,35)"/>
<path d="M0 0 C0.33 0 0.66 0 1 0 C1.04254356 1.99954746 1.04080783 4.00041636 1 6 C0 7 0 7 -2.5625 7.0625 C-3.7690625 7.0315625 -3.7690625 7.0315625 -5 7 C-5 6.34 -5 5.68 -5 5 C-4.360625 4.731875 -3.72125 4.46375 -3.0625 4.1875 C-0.66868314 3.11332248 -0.66868314 3.11332248 0 0 Z " fill="#196EA0" transform="translate(64,102)"/>
<path d="M0 0 C0.66 0.66 1.32 1.32 2 2 C1.625 4.125 1.625 4.125 1 6 C-0.65 6.33 -2.3 6.66 -4 7 C-3.34 6.67 -2.68 6.34 -2 6 C-1.27306096 4.02111039 -0.60183749 2.02045442 0 0 Z " fill="#C1CCCE" transform="translate(77,103)"/>
<path d="M0 0 C3.60654039 2.40436026 3.85452932 3.94679607 5 8 C3.68 7.67 2.36 7.34 1 7 C0.67 4.69 0.34 2.38 0 0 Z " fill="#2199C8" transform="translate(68,102)"/>
<path d="M0 0 C1.485 0.99 1.485 0.99 3 2 C2.67 2.99 2.34 3.98 2 5 C1.67 4.67 1.34 4.34 1 4 C0.67 6.64 0.34 9.28 0 12 C-0.33 12 -0.66 12 -1 12 C-1.02698189 10.37509046 -1.04638757 8.75005367 -1.0625 7.125 C-1.07410156 6.22007813 -1.08570312 5.31515625 -1.09765625 4.3828125 C-1 2 -1 2 0 0 Z " fill="#18A3DC" transform="translate(68,99)"/>
<path d="M0 0 C0.66 0 1.32 0 2 0 C2 0.66 2 1.32 2 2 C3.32 1.67 4.64 1.34 6 1 C5.67 2.32 5.34 3.64 5 5 C4.34 4.67 3.68 4.34 3 4 C2.67 5.32 2.34 6.64 2 8 C1.34 5.36 0.68 2.72 0 0 Z " fill="#38B9D9" transform="translate(61,97)"/>
<path d="M0 0 C1.32 0.66 2.64 1.32 4 2 C4 2.99 4 3.98 4 5 C2.68 5 1.36 5 0 5 C-0.33 4.01 -0.66 3.02 -1 2 C-0.67 1.34 -0.34 0.68 0 0 Z " fill="#1874A7" transform="translate(91,93)"/>
<path d="M0 0 C1.32 0.33 2.64 0.66 4 1 C3.67 3.31 3.34 5.62 3 8 C2.67 7.01 2.34 6.02 2 5 C1.34 5 0.68 5 0 5 C0 3.35 0 1.7 0 0 Z " fill="#127CB4" transform="translate(83,96)"/>
<path d="M0 0 C0.99 0.33 1.98 0.66 3 1 C2.67 2.32 2.34 3.64 2 5 C0.68 4.67 -0.64 4.34 -2 4 C-1.34 2.68 -0.68 1.36 0 0 Z " fill="#677A52" transform="translate(89,63)"/>
<path d="M0 0 C0.66 0.33 1.32 0.66 2 1 C2 1.99 2 2.98 2 4 C-0.31 4.66 -2.62 5.32 -5 6 C-4.67 4.68 -4.34 3.36 -4 2 C-2.68 2 -1.36 2 0 2 C0 1.34 0 0.68 0 0 Z " fill="#867C4A" transform="translate(82,64)"/>
<path d="M0 0 C0.99 0 1.98 0 3 0 C3 2.31 3 4.62 3 7 C2.01 6.67 1.02 6.34 0 6 C-0.38218767 4.34385343 -0.71395102 2.67542976 -1 1 C-0.67 0.67 -0.34 0.34 0 0 Z " fill="#166E93" transform="translate(93,64)"/>
<path d="M0 0 C1.33332095 2.6666419 0.67102033 4.16680303 0 7 C-2 5.6875 -2 5.6875 -4 4 C-4 3.01 -4 2.02 -4 1 C-2.68 0.67 -1.36 0.34 0 0 Z " fill="#157AB3" transform="translate(82,101)"/>
<path d="M0 0 C0.268125 0.556875 0.53625 1.11375 0.8125 1.6875 C2.10122647 4.19712523 3.52926478 6.59334236 5 9 C4.01 9 3.02 9 2 9 C0.25 6.75 0.25 6.75 -1 4 C-0.6875 1.6875 -0.6875 1.6875 0 0 Z " fill="#1C6D9B" transform="translate(95,87)"/>
<path d="M0 0 C2.69082872 0.17635452 5.32851446 0.61835921 8 1 C7.67 1.66 7.34 2.32 7 3 C4.125 3.125 4.125 3.125 1 3 C0.34 2.34 -0.32 1.68 -1 1 C-0.67 0.67 -0.34 0.34 0 0 Z " fill="#AF6817" transform="translate(71,82)"/>
<path d="M0 0 C0.99 0 1.98 0 3 0 C4.8125 2.25 4.8125 2.25 6 5 C5.1875 7.3125 5.1875 7.3125 4 9 C3.67 7.35 3.34 5.7 3 4 C2.01 3.67 1.02 3.34 0 3 C0 2.01 0 1.02 0 0 Z " fill="#336683" transform="translate(88,70)"/>
<path d="M0 0 C1.5625 1.1875 1.5625 1.1875 3 3 C2.6875 5.6875 2.6875 5.6875 2 8 C1.34 7.67 0.68 7.34 0 7 C-1.26229508 2.52459016 -1.26229508 2.52459016 0 0 Z " fill="#C4CACB" transform="translate(91,98)"/>
<path d="M0 0 C0.66 0 1.32 0 2 0 C1.67 1.65 1.34 3.3 1 5 C0.01 5.33 -0.98 5.66 -2 6 C-1.125 1.125 -1.125 1.125 0 0 Z " fill="#EAF0EB" transform="translate(89,97)"/>
<path d="M0 0 C0.99 0.66 1.98 1.32 3 2 C3 2.99 3 3.98 3 5 C2.38125 5.144375 1.7625 5.28875 1.125 5.4375 C-1.03258322 5.93152225 -1.03258322 5.93152225 -3 7 C-2.690625 6.401875 -2.38125 5.80375 -2.0625 5.1875 C-0.89790296 2.91043228 -0.89790296 2.91043228 0 0 Z " fill="#123657" transform="translate(93,76)"/>
<path d="M0 0 C-0.33 1.65 -0.66 3.3 -1 5 C-2.65 4.67 -4.3 4.34 -6 4 C-2.25 0 -2.25 0 0 0 Z " fill="#E9C522" transform="translate(47,59)"/>
<path d="M0 0 C0.99 0.33 1.98 0.66 3 1 C1.71937515 2.7074998 0.38232443 4.37373596 -1 6 C-1.66 6 -2.32 6 -3 6 C-2.42655063 3.13275314 -2.1385485 2.1385485 0 0 Z " fill="#84F2F5" transform="translate(46,49)"/>
<path d="M0 0 C0.33 0 0.66 0 1 0 C1.042721 1.66611905 1.04063832 3.33382885 1 5 C0 6 0 6 -3.5625 6.0625 C-4.696875 6.041875 -5.83125 6.02125 -7 6 C-7 5.67 -7 5.34 -7 5 C-5.35 5 -3.7 5 -2 5 C-1.34 3.35 -0.68 1.7 0 0 Z " fill="#ADD5DC" transform="translate(95,41)"/>
<path d="M0 0 C1.32 0 2.64 0 4 0 C3.1875 1.9375 3.1875 1.9375 2 4 C1.01 4.33 0.02 4.66 -1 5 C-0.67 3.35 -0.34 1.7 0 0 Z " fill="#F7FDF9" transform="translate(88,39)"/>
</svg>
